TITLE: some text
FCM: NON-DROP FRAME

001 UNKNOWN  V    C        00:59:50:24 00:59:52:08 00:59:50:24 00:59:52:08
* FROM CLIP NAME: 001
002 UNKNOWN  V    C        00:59:52:08 00:59:57:03 00:59:52:08 00:59:57:03
* FROM CLIP NAME: 001
003 UNKNOWN  V    C        00:59:57:03 01:00:00:00 00:59:57:03 01:00:00:00
* FROM CLIP NAME: 001
004 UNKNOWN  V    C        01:00:00:00 01:00:00:03 01:00:00:00 01:00:00:03
* FROM CLIP NAME: 001
005 UNKNOWN  V    C        01:00:00:03 01:00:00:13 01:00:00:03 01:00:00:13
* FROM CLIP NAME: 001
006 UNKNOWN  V    C        01:00:00:13 01:00:00:13 01:00:00:13 01:00:00:13
006 UNKNOWN  V    D    052 01:00:00:13 01:00:07:09 01:00:00:13 01:00:07:09
* FROM CLIP NAME: 001
* TO CLIP NAME: 001
007 UNKNOWN  V    C        01:00:07:07 01:00:07:08 01:00:07:09 01:00:07:10
* FROM CLIP NAME: 001
008 UNKNOWN  V    C        01:00:07:10 01:00:15:17 01:00:07:10 01:00:15:17
* FROM CLIP NAME: 001
009 UNKNOWN  V    C        01:00:15:17 01:00:15:17 01:00:15:17 01:00:15:17
009 UNKNOWN  V    D    036 01:00:15:17 01:00:29:24 01:00:15:17 01:00:29:24
* FROM CLIP NAME: 001
* TO CLIP NAME: 001
010 UNKNOWN  V    C        01:00:30:16 01:00:31:08 01:00:29:24 01:00:30:16
* FROM CLIP NAME: 001
011 UNKNOWN  V    C        01:00:30:16 01:00:58:00 01:00:30:16 01:00:58:00
* FROM CLIP NAME: 001
012 UNKNOWN  V    C        01:00:58:16 01:00:59:07 01:00:58:00 01:00:58:16
* FROM CLIP NAME: 001
013 UNKNOWN  V    C        01:00:58:16 01:01:08:17 01:00:58:16 01:01:08:17
* FROM CLIP NAME: 001
014 UNKNOWN  V    C        01:01:08:17 01:01:08:18 01:01:08:17 01:01:08:18
* FROM CLIP NAME: 001
015 UNKNOWN  V    C        01:01:08:18 01:01:08:19 01:01:08:18 01:01:08:19
* FROM CLIP NAME: 001
016 UNKNOWN  V    C        01:01:08:19 01:01:08:19 01:01:08:19 01:01:08:19
016 UNKNOWN  V    D    041 01:01:08:19 01:01:12:24 01:01:08:19 01:01:12:24
* FROM CLIP NAME: 001
* TO CLIP NAME: 001
017 UNKNOWN  V    C        01:01:12:24 01:01:13:00 01:01:12:24 01:01:13:00
* FROM CLIP NAME: 001
018 UNKNOWN  V    C        01:01:13:00 01:01:25:22 01:01:13:00 01:01:25:22
* FROM CLIP NAME: 001
019 UNKNOWN  V    C        01:01:25:22 01:01:25:24 01:01:25:22 01:01:25:24
* FROM CLIP NAME: 001
020 UNKNOWN  V    C        01:01:25:24 01:01:33:01 01:01:25:24 01:01:33:01
* FROM CLIP NAME: 001
021 UNKNOWN  V    C        01:01:33:01 01:01:35:22 01:01:33:01 01:01:35:22
* FROM CLIP NAME: 001
022 UNKNOWN  V    C        01:01:35:22 01:01:35:22 01:01:35:22 01:01:35:22
022 UNKNOWN  V    D    002 01:01:35:22 01:01:42:12 01:01:35:22 01:01:42:12
* FROM CLIP NAME: 001
* TO CLIP NAME: 001
023 UNKNOWN  V    C        01:01:42:12 01:01:42:12 01:01:42:12 01:01:42:12
023 UNKNOWN  V    D    007 01:01:42:12 01:01:42:19 01:01:42:12 01:01:42:19
* FROM CLIP NAME: 001
* TO CLIP NAME: 001
024 UNKNOWN  V    C        01:01:42:19 01:01:42:19 01:01:42:19 01:01:42:19
024 UNKNOWN  V    D    001 01:01:42:19 01:01:42:20 01:01:42:19 01:01:42:20
* FROM CLIP NAME: 001
* TO CLIP NAME: 001
025 UNKNOWN  V    C        01:01:42:20 01:01:42:20 01:01:42:20 01:01:42:20
025 UNKNOWN  V    D    018 01:01:42:20 01:01:45:21 01:01:42:20 01:01:45:21
* FROM CLIP NAME: 001
* TO CLIP NAME: 001
026 UNKNOWN  V    C        01:01:45:21 01:01:45:22 01:01:45:21 01:01:45:22
* FROM CLIP NAME: 001
027 UNKNOWN  V    C        01:01:45:22 01:02:02:22 01:01:45:22 01:02:02:22
* FROM CLIP NAME: 001
028 UNKNOWN  V    C        01:02:02:22 01:02:02:22 01:02:02:22 01:02:02:22
028 UNKNOWN  V    D    028 01:02:02:22 01:02:06:02 01:02:02:22 01:02:06:02
* FROM CLIP NAME: 001
* TO CLIP NAME: 001
029 UNKNOWN  V    C        01:02:06:02 01:02:13:13 01:02:06:02 01:02:13:13
* FROM CLIP NAME: 001
030 UNKNOWN  V    C        01:02:13:13 01:02:13:14 01:02:13:13 01:02:13:14
* FROM CLIP NAME: 001
031 UNKNOWN  V    C        01:02:13:14 01:02:18:24 01:02:13:14 01:02:18:24
* FROM CLIP NAME: 001
032 UNKNOWN  V    C        01:02:18:24 01:02:19:02 01:02:18:24 01:02:19:02
* FROM CLIP NAME: 001
033 UNKNOWN  V    C        01:02:19:02 01:02:24:21 01:02:19:02 01:02:24:21
* FROM CLIP NAME: 001
034 UNKNOWN  V    C        01:02:24:21 01:02:24:21 01:02:24:21 01:02:24:21
034 UNKNOWN  V    D    024 01:02:24:21 01:02:28:18 01:02:24:21 01:02:28:18
* FROM CLIP NAME: 001
* TO CLIP NAME: 001
035 UNKNOWN  V    C        01:02:28:18 01:02:28:19 01:02:28:18 01:02:28:19
* FROM CLIP NAME: 001
036 UNKNOWN  V    C        01:02:28:19 01:02:37:19 01:02:28:19 01:02:37:19
* FROM CLIP NAME: 001
037 UNKNOWN  V    C        01:02:37:19 01:02:37:19 01:02:37:19 01:02:37:19
037 UNKNOWN  V    D    032 01:02:37:19 01:02:42:07 01:02:37:19 01:02:42:07
* FROM CLIP NAME: 001
* TO CLIP NAME: 001
038 UNKNOWN  V    C        01:02:42:07 01:02:46:09 01:02:42:07 01:02:46:09
* FROM CLIP NAME: 001
039 UNKNOWN  V    C        01:02:46:09 01:02:46:09 01:02:46:09 01:02:46:09
039 UNKNOWN  V    D    023 01:02:46:09 01:02:47:08 01:02:46:09 01:02:47:08
* FROM CLIP NAME: 001
* TO CLIP NAME: 001
040 UNKNOWN  V    C        01:02:47:08 01:02:47:09 01:02:47:08 01:02:47:09
* FROM CLIP NAME: 001
041 UNKNOWN  V    C        01:02:47:09 01:02:50:10 01:02:47:09 01:02:50:10
* FROM CLIP NAME: 001
042 UNKNOWN  V    C        01:02:50:10 01:02:50:11 01:02:50:10 01:02:50:11
* FROM CLIP NAME: 001
043 UNKNOWN  V    C        01:02:50:11 01:03:28:22 01:02:50:11 01:03:28:22
* FROM CLIP NAME: 001
044 UNKNOWN  V    C        01:03:28:22 01:03:28:22 01:03:28:22 01:03:28:22
044 UNKNOWN  V    D    017 01:03:28:22 01:03:29:16 01:03:28:22 01:03:29:16
* FROM CLIP NAME: 001
* TO CLIP NAME: 001
045 UNKNOWN  V    C        01:03:29:16 01:03:29:17 01:03:29:16 01:03:29:17
* FROM CLIP NAME: 001
046 UNKNOWN  V    C        01:03:29:17 01:03:29:17 01:03:29:17 01:03:29:17
046 UNKNOWN  V    D    018 01:03:29:17 01:03:49:08 01:03:29:17 01:03:49:08
* FROM CLIP NAME: 001
* TO CLIP NAME: 001
047 UNKNOWN  V    C        01:03:49:08 01:03:52:14 01:03:49:08 01:03:52:14
* FROM CLIP NAME: 001
048 UNKNOWN  V    C        01:03:52:14 01:03:56:21 01:03:52:14 01:03:56:21
* FROM CLIP NAME: 001
049 UNKNOWN  V    C        01:03:56:21 01:03:56:22 01:03:56:21 01:03:56:22
* FROM CLIP NAME: 001
050 UNKNOWN  V    C        01:03:56:22 01:04:15:22 01:03:56:22 01:04:15:22
* FROM CLIP NAME: 001
051 UNKNOWN  V    C        01:04:15:22 01:04:15:23 01:04:15:22 01:04:15:23
* FROM CLIP NAME: 001
052 UNKNOWN  V    C        01:04:15:23 01:04:22:23 01:04:15:23 01:04:22:23
* FROM CLIP NAME: 001
053 UNKNOWN  V    C        01:04:22:23 01:04:22:24 01:04:22:23 01:04:22:24
* FROM CLIP NAME: 001
054 UNKNOWN  V    C        01:04:22:24 01:04:25:15 01:04:22:24 01:04:25:15
* FROM CLIP NAME: 001
055 UNKNOWN  V    C        01:04:25:15 01:04:25:16 01:04:25:15 01:04:25:16
* FROM CLIP NAME: 001
056 UNKNOWN  V    C        01:04:25:16 01:04:32:00 01:04:25:16 01:04:32:00
* FROM CLIP NAME: 001
057 UNKNOWN  V    C        01:04:32:00 01:04:32:01 01:04:32:00 01:04:32:01
* FROM CLIP NAME: 001
058 UNKNOWN  V    C        01:04:32:01 01:05:09:24 01:04:32:01 01:05:09:24
* FROM CLIP NAME: 001
059 UNKNOWN  V    C        01:05:09:24 01:05:10:00 01:05:09:24 01:05:10:00
* FROM CLIP NAME: 001
060 UNKNOWN  V    C        01:05:10:00 01:05:15:22 01:05:10:00 01:05:15:22
* FROM CLIP NAME: 001
061 UNKNOWN  V    C        01:05:15:22 01:05:15:23 01:05:15:22 01:05:15:23
* FROM CLIP NAME: 001
062 UNKNOWN  V    C        01:05:15:23 01:05:17:11 01:05:15:23 01:05:17:11
* FROM CLIP NAME: 001
063 UNKNOWN  V    C        01:05:17:11 01:05:17:11 01:05:17:11 01:05:17:11
063 UNKNOWN  V    D    076 01:05:17:11 01:05:36:00 01:05:17:11 01:05:36:00
* FROM CLIP NAME: 001
* TO CLIP NAME: 001
064 UNKNOWN  V    C        01:05:36:00 01:05:36:01 01:05:36:00 01:05:36:01
* FROM CLIP NAME: 001
065 UNKNOWN  V    C        01:05:36:01 01:05:38:22 01:05:36:01 01:05:38:22
* FROM CLIP NAME: 001
066 UNKNOWN  V    C        01:05:38:22 01:06:05:06 01:05:38:22 01:06:05:06
* FROM CLIP NAME: 001
067 UNKNOWN  V    C        01:06:05:06 01:06:12:05 01:06:05:06 01:06:12:05
* FROM CLIP NAME: 001
068 UNKNOWN  V    C        01:06:12:05 01:06:12:06 01:06:12:05 01:06:12:06
* FROM CLIP NAME: 001
069 UNKNOWN  V    C        01:06:12:06 01:06:20:00 01:06:12:06 01:06:20:00
* FROM CLIP NAME: 001
070 UNKNOWN  V    C        01:06:20:00 01:06:33:06 01:06:20:00 01:06:33:06
* FROM CLIP NAME: 001
071 UNKNOWN  V    C        01:06:33:06 01:06:41:04 01:06:33:06 01:06:41:04
* FROM CLIP NAME: 001
072 UNKNOWN  V    C        01:06:41:04 01:06:41:05 01:06:41:04 01:06:41:05
* FROM CLIP NAME: 001
073 UNKNOWN  V    C        01:06:41:05 01:07:01:02 01:06:41:05 01:07:01:02
* FROM CLIP NAME: 001
074 UNKNOWN  V    C        01:07:01:02 01:07:01:03 01:07:01:02 01:07:01:03
* FROM CLIP NAME: 001
075 UNKNOWN  V    C        01:07:01:03 01:07:02:02 01:07:01:03 01:07:02:02
* FROM CLIP NAME: 001
076 UNKNOWN  V    C        01:07:02:02 01:07:29:09 01:07:02:02 01:07:29:09
* FROM CLIP NAME: 001
077 UNKNOWN  V    C        01:07:29:09 01:07:29:10 01:07:29:09 01:07:29:10
* FROM CLIP NAME: 001
078 UNKNOWN  V    C        01:07:29:10 01:07:37:05 01:07:29:10 01:07:37:05
* FROM CLIP NAME: 001
079 UNKNOWN  V    C        01:07:37:05 01:07:37:06 01:07:37:05 01:07:37:06
* FROM CLIP NAME: 001
080 UNKNOWN  V    C        01:07:37:06 01:07:39:20 01:07:37:06 01:07:39:20
* FROM CLIP NAME: 001
081 UNKNOWN  V    C        01:07:39:20 01:07:39:21 01:07:39:20 01:07:39:21
* FROM CLIP NAME: 001
082 UNKNOWN  V    C        01:07:39:21 01:07:46:05 01:07:39:21 01:07:46:05
* FROM CLIP NAME: 001
083 UNKNOWN  V    C        01:07:46:05 01:07:46:06 01:07:46:05 01:07:46:06
* FROM CLIP NAME: 001
084 UNKNOWN  V    C        01:07:46:06 01:07:49:21 01:07:46:06 01:07:49:21
* FROM CLIP NAME: 001
085 UNKNOWN  V    C        01:07:49:21 01:08:01:03 01:07:49:21 01:08:01:03
* FROM CLIP NAME: 001
086 UNKNOWN  V    C        01:08:01:03 01:08:12:18 01:08:01:03 01:08:12:18
* FROM CLIP NAME: 001
087 UNKNOWN  V    C        01:08:12:18 01:08:12:19 01:08:12:18 01:08:12:19
* FROM CLIP NAME: 001
088 UNKNOWN  V    C        01:08:12:19 01:08:35:07 01:08:12:19 01:08:35:07
* FROM CLIP NAME: 001
089 UNKNOWN  V    C        01:08:35:07 01:08:41:15 01:08:35:07 01:08:41:15
* FROM CLIP NAME: 001
090 UNKNOWN  V    C        01:08:41:15 01:08:44:04 01:08:41:15 01:08:44:04
* FROM CLIP NAME: 001
091 UNKNOWN  V    C        01:08:44:04 01:08:50:05 01:08:44:04 01:08:50:05
* FROM CLIP NAME: 001
092 UNKNOWN  V    C        01:08:50:05 01:08:54:00 01:08:50:05 01:08:54:00
* FROM CLIP NAME: 001
093 UNKNOWN  V    C        01:08:54:00 01:09:12:24 01:08:54:00 01:09:12:24
* FROM CLIP NAME: 001
094 UNKNOWN  V    C        01:09:12:24 01:09:13:00 01:09:12:24 01:09:13:00
* FROM CLIP NAME: 001
095 UNKNOWN  V    C        01:09:13:00 01:09:36:06 01:09:13:00 01:09:36:06
* FROM CLIP NAME: 001
096 UNKNOWN  V    C        01:09:36:06 01:09:36:07 01:09:36:06 01:09:36:07
* FROM CLIP NAME: 001
097 UNKNOWN  V    C        01:09:36:07 01:09:36:08 01:09:36:07 01:09:36:08
* FROM CLIP NAME: 001
098 UNKNOWN  V    C        01:09:36:08 01:09:36:09 01:09:36:08 01:09:36:09
* FROM CLIP NAME: 001
099 UNKNOWN  V    C        01:09:36:09 01:09:38:18 01:09:36:09 01:09:38:18
* FROM CLIP NAME: 001
100 UNKNOWN  V    C        01:09:38:18 01:09:44:07 01:09:38:18 01:09:44:07
* FROM CLIP NAME: 001
101 UNKNOWN  V    C        01:09:44:07 01:09:44:09 01:09:44:07 01:09:44:09
* FROM CLIP NAME: 001
102 UNKNOWN  V    C        01:09:44:09 01:09:48:00 01:09:44:09 01:09:48:00
* FROM CLIP NAME: 001
103 UNKNOWN  V    C        01:09:48:00 01:09:48:03 01:09:48:00 01:09:48:03
* FROM CLIP NAME: 001
104 UNKNOWN  V    C        01:09:48:03 01:09:49:10 01:09:48:03 01:09:49:10
* FROM CLIP NAME: 001
105 UNKNOWN  V    C        01:09:49:10 01:09:49:12 01:09:49:10 01:09:49:12
* FROM CLIP NAME: 001
106 UNKNOWN  V    C        01:09:49:12 01:09:53:10 01:09:49:12 01:09:53:10
* FROM CLIP NAME: 001
107 UNKNOWN  V    C        01:09:53:10 01:09:56:19 01:09:53:10 01:09:56:19
* FROM CLIP NAME: 001
108 UNKNOWN  V    C        01:09:56:19 01:09:56:22 01:09:56:19 01:09:56:22
* FROM CLIP NAME: 001
109 UNKNOWN  V    C        01:09:56:22 01:10:03:13 01:09:56:22 01:10:03:13
* FROM CLIP NAME: 001
110 UNKNOWN  V    C        01:10:03:13 01:10:03:15 01:10:03:13 01:10:03:15
* FROM CLIP NAME: 001
111 UNKNOWN  V    C        01:10:03:15 01:10:09:00 01:10:03:15 01:10:09:00
* FROM CLIP NAME: 001
112 UNKNOWN  V    C        01:10:09:00 01:10:09:03 01:10:09:00 01:10:09:03
* FROM CLIP NAME: 001
113 UNKNOWN  V    C        01:10:09:03 01:10:31:04 01:10:09:03 01:10:31:04
* FROM CLIP NAME: 001
114 UNKNOWN  V    C        01:10:31:04 01:10:53:02 01:10:31:04 01:10:53:02
* FROM CLIP NAME: 001
115 UNKNOWN  V    C        01:10:53:02 01:10:53:05 01:10:53:02 01:10:53:05
* FROM CLIP NAME: 001
116 UNKNOWN  V    C        01:10:53:05 01:11:04:21 01:10:53:05 01:11:04:21
* FROM CLIP NAME: 001
117 UNKNOWN  V    C        01:11:04:21 01:11:04:24 01:11:04:21 01:11:04:24
* FROM CLIP NAME: 001
118 UNKNOWN  V    C        01:11:04:24 01:11:12:13 01:11:04:24 01:11:12:13
* FROM CLIP NAME: 001
119 UNKNOWN  V    C        01:11:12:13 01:11:16:09 01:11:12:13 01:11:16:09
* FROM CLIP NAME: 001
120 UNKNOWN  V    C        01:11:16:09 01:11:27:11 01:11:16:09 01:11:27:11
* FROM CLIP NAME: 001
121 UNKNOWN  V    C        01:11:27:11 01:11:30:08 01:11:27:11 01:11:30:08
* FROM CLIP NAME: 001
122 UNKNOWN  V    C        01:11:30:08 01:11:30:11 01:11:30:08 01:11:30:11
* FROM CLIP NAME: 001
123 UNKNOWN  V    C        01:11:30:11 01:11:32:06 01:11:30:11 01:11:32:06
* FROM CLIP NAME: 001
124 UNKNOWN  V    C        01:11:32:06 01:11:32:09 01:11:32:06 01:11:32:09
* FROM CLIP NAME: 001
125 UNKNOWN  V    C        01:11:32:09 01:11:50:00 01:11:32:09 01:11:50:00
* FROM CLIP NAME: 001
126 UNKNOWN  V    C        01:11:50:00 01:12:02:13 01:11:50:00 01:12:02:13
* FROM CLIP NAME: 001
127 UNKNOWN  V    C        01:12:02:13 01:12:02:15 01:12:02:13 01:12:02:15
* FROM CLIP NAME: 001
128 UNKNOWN  V    C        01:12:02:15 01:12:06:07 01:12:02:15 01:12:06:07
* FROM CLIP NAME: 001
129 UNKNOWN  V    C        01:12:06:07 01:12:06:10 01:12:06:07 01:12:06:10
* FROM CLIP NAME: 001
130 UNKNOWN  V    C        01:12:06:10 01:12:18:16 01:12:06:10 01:12:18:16
* FROM CLIP NAME: 001
131 UNKNOWN  V    C        01:12:18:16 01:12:21:13 01:12:18:16 01:12:21:13
* FROM CLIP NAME: 001
132 UNKNOWN  V    C        01:12:21:13 01:12:29:10 01:12:21:13 01:12:29:10
* FROM CLIP NAME: 001
133 UNKNOWN  V    C        01:12:29:10 01:12:34:07 01:12:29:10 01:12:34:07
* FROM CLIP NAME: 001
134 UNKNOWN  V    C        01:12:34:07 01:12:34:09 01:12:34:07 01:12:34:09
* FROM CLIP NAME: 001
135 UNKNOWN  V    C        01:12:34:09 01:12:42:00 01:12:34:09 01:12:42:00
* FROM CLIP NAME: 001
136 UNKNOWN  V    C        01:12:42:00 01:12:46:21 01:12:42:00 01:12:46:21
* FROM CLIP NAME: 001
137 UNKNOWN  V    C        01:12:46:21 01:12:49:18 01:12:46:21 01:12:49:18
* FROM CLIP NAME: 001
138 UNKNOWN  V    C        01:12:49:18 01:13:00:03 01:12:49:18 01:13:00:03
* FROM CLIP NAME: 001
139 UNKNOWN  V    C        01:13:00:03 01:13:03:12 01:13:00:03 01:13:03:12
* FROM CLIP NAME: 001
140 UNKNOWN  V    C        01:13:03:12 01:13:06:21 01:13:03:12 01:13:06:21
* FROM CLIP NAME: 001
141 UNKNOWN  V    C        01:13:06:21 01:13:06:23 01:13:06:21 01:13:06:23
* FROM CLIP NAME: 001
142 UNKNOWN  V    C        01:13:06:23 01:13:12:16 01:13:06:23 01:13:12:16
* FROM CLIP NAME: 001
143 UNKNOWN  V    C        01:13:12:16 01:13:12:18 01:13:12:16 01:13:12:18
* FROM CLIP NAME: 001
144 UNKNOWN  V    C        01:13:12:18 01:13:28:02 01:13:12:18 01:13:28:02
* FROM CLIP NAME: 001
145 UNKNOWN  V    C        01:13:28:02 01:13:28:04 01:13:28:02 01:13:28:04
* FROM CLIP NAME: 001
146 UNKNOWN  V    C        01:13:28:04 01:13:32:10 01:13:28:04 01:13:32:10
* FROM CLIP NAME: 001
147 UNKNOWN  V    C        01:13:32:10 01:13:32:12 01:13:32:10 01:13:32:12
* FROM CLIP NAME: 001
148 UNKNOWN  V    C        01:13:32:12 01:13:42:16 01:13:32:12 01:13:42:16
* FROM CLIP NAME: 001
149 UNKNOWN  V    C        01:13:42:16 01:13:42:19 01:13:42:16 01:13:42:19
* FROM CLIP NAME: 001
150 UNKNOWN  V    C        01:13:42:19 01:13:55:07 01:13:42:19 01:13:55:07
* FROM CLIP NAME: 001
151 UNKNOWN  V    C        01:13:55:07 01:13:55:09 01:13:55:07 01:13:55:09
* FROM CLIP NAME: 001
152 UNKNOWN  V    C        01:13:55:09 01:14:00:01 01:13:55:09 01:14:00:01
* FROM CLIP NAME: 001
153 UNKNOWN  V    C        01:14:00:01 01:14:00:03 01:14:00:01 01:14:00:03
* FROM CLIP NAME: 001
154 UNKNOWN  V    C        01:14:00:03 01:14:19:00 01:14:00:03 01:14:19:00
* FROM CLIP NAME: 001
155 UNKNOWN  V    C        01:14:19:00 01:14:19:03 01:14:19:00 01:14:19:03
* FROM CLIP NAME: 001
156 UNKNOWN  V    C        01:14:19:03 01:14:24:17 01:14:19:03 01:14:24:17
* FROM CLIP NAME: 001
157 UNKNOWN  V    C        01:14:24:17 01:14:24:19 01:14:24:17 01:14:24:19
* FROM CLIP NAME: 001
158 UNKNOWN  V    C        01:14:24:19 01:14:26:20 01:14:24:19 01:14:26:20
* FROM CLIP NAME: 001
159 UNKNOWN  V    C        01:14:26:20 01:14:26:23 01:14:26:20 01:14:26:23
* FROM CLIP NAME: 001
160 UNKNOWN  V    C        01:14:26:23 01:14:28:10 01:14:26:23 01:14:28:10
* FROM CLIP NAME: 001
161 UNKNOWN  V    C        01:14:28:10 01:14:33:18 01:14:28:10 01:14:33:18
* FROM CLIP NAME: 001
162 UNKNOWN  V    C        01:14:33:18 01:14:33:21 01:14:33:18 01:14:33:21
* FROM CLIP NAME: 001
163 UNKNOWN  V    C        01:14:33:21 01:14:35:17 01:14:33:21 01:14:35:17
* FROM CLIP NAME: 001
164 UNKNOWN  V    C        01:14:35:17 01:14:35:20 01:14:35:17 01:14:35:20
* FROM CLIP NAME: 001
165 UNKNOWN  V    C        01:14:35:20 01:14:39:13 01:14:35:20 01:14:39:13
* FROM CLIP NAME: 001
166 UNKNOWN  V    C        01:14:39:13 01:14:39:15 01:14:39:13 01:14:39:15
* FROM CLIP NAME: 001
167 UNKNOWN  V    C        01:14:39:15 01:14:42:18 01:14:39:15 01:14:42:18
* FROM CLIP NAME: 001
168 UNKNOWN  V    C        01:14:42:18 01:14:42:22 01:14:42:18 01:14:42:22
* FROM CLIP NAME: 001
169 UNKNOWN  V    C        01:14:42:22 01:14:44:13 01:14:42:22 01:14:44:13
* FROM CLIP NAME: 001
170 UNKNOWN  V    C        01:14:44:13 01:14:44:15 01:14:44:13 01:14:44:15
* FROM CLIP NAME: 001
171 UNKNOWN  V    C        01:14:44:15 01:14:47:05 01:14:44:15 01:14:47:05
* FROM CLIP NAME: 001
172 UNKNOWN  V    C        01:14:47:05 01:14:47:08 01:14:47:05 01:14:47:08
* FROM CLIP NAME: 001
173 UNKNOWN  V    C        01:14:47:08 01:14:50:24 01:14:47:08 01:14:50:24
* FROM CLIP NAME: 001
174 UNKNOWN  V    C        01:14:50:24 01:14:51:01 01:14:50:24 01:14:51:01
* FROM CLIP NAME: 001
175 UNKNOWN  V    C        01:14:51:01 01:14:52:23 01:14:51:01 01:14:52:23
* FROM CLIP NAME: 001
176 UNKNOWN  V    C        01:14:52:23 01:14:53:01 01:14:52:23 01:14:53:01
* FROM CLIP NAME: 001
177 UNKNOWN  V    C        01:14:53:01 01:14:57:17 01:14:53:01 01:14:57:17
* FROM CLIP NAME: 001
178 UNKNOWN  V    C        01:14:57:17 01:14:57:19 01:14:57:17 01:14:57:19
* FROM CLIP NAME: 001
179 UNKNOWN  V    C        01:14:57:19 01:15:03:02 01:14:57:19 01:15:03:02
* FROM CLIP NAME: 001
180 UNKNOWN  V    C        01:15:03:02 01:15:03:05 01:15:03:02 01:15:03:05
* FROM CLIP NAME: 001
181 UNKNOWN  V    C        01:15:03:05 01:15:06:05 01:15:03:05 01:15:06:05
* FROM CLIP NAME: 001
182 UNKNOWN  V    C        01:15:06:05 01:15:06:07 01:15:06:05 01:15:06:07
* FROM CLIP NAME: 001
183 UNKNOWN  V    C        01:15:06:07 01:15:12:02 01:15:06:07 01:15:12:02
* FROM CLIP NAME: 001
184 UNKNOWN  V    C        01:15:12:02 01:15:12:05 01:15:12:02 01:15:12:05
* FROM CLIP NAME: 001
185 UNKNOWN  V    C        01:15:12:05 01:15:24:13 01:15:12:05 01:15:24:13
* FROM CLIP NAME: 001
186 UNKNOWN  V    C        01:15:24:13 01:15:24:15 01:15:24:13 01:15:24:15
* FROM CLIP NAME: 001
187 UNKNOWN  V    C        01:15:24:15 01:15:36:17 01:15:24:15 01:15:36:17
* FROM CLIP NAME: 001
188 UNKNOWN  V    C        01:15:36:17 01:15:36:19 01:15:36:17 01:15:36:19
* FROM CLIP NAME: 001
189 UNKNOWN  V    C        01:15:36:19 01:15:44:15 01:15:36:19 01:15:44:15
* FROM CLIP NAME: 001
190 UNKNOWN  V    C        01:15:44:15 01:15:44:17 01:15:44:15 01:15:44:17
* FROM CLIP NAME: 001
191 UNKNOWN  V    C        01:15:44:17 01:15:48:08 01:15:44:17 01:15:48:08
* FROM CLIP NAME: 001
192 UNKNOWN  V    C        01:15:48:08 01:15:48:10 01:15:48:08 01:15:48:10
* FROM CLIP NAME: 001
193 UNKNOWN  V    C        01:15:48:10 01:15:52:10 01:15:48:10 01:15:52:10
* FROM CLIP NAME: 001
194 UNKNOWN  V    C        01:15:52:10 01:15:52:12 01:15:52:10 01:15:52:12
* FROM CLIP NAME: 001
195 UNKNOWN  V    C        01:15:52:12 01:16:03:00 01:15:52:12 01:16:03:00
* FROM CLIP NAME: 001
196 UNKNOWN  V    C        01:16:03:00 01:16:03:02 01:16:03:00 01:16:03:02
* FROM CLIP NAME: 001
197 UNKNOWN  V    C        01:16:03:02 01:16:05:10 01:16:03:02 01:16:05:10
* FROM CLIP NAME: 001
198 UNKNOWN  V    C        01:16:05:10 01:16:05:12 01:16:05:10 01:16:05:12
* FROM CLIP NAME: 001
199 UNKNOWN  V    C        01:16:05:12 01:16:11:00 01:16:05:12 01:16:11:00
* FROM CLIP NAME: 001
200 UNKNOWN  V    C        01:16:11:00 01:16:11:03 01:16:11:00 01:16:11:03
* FROM CLIP NAME: 001
201 UNKNOWN  V    C        01:16:11:03 01:16:30:20 01:16:11:03 01:16:30:20
* FROM CLIP NAME: 001
202 UNKNOWN  V    C        01:16:30:20 01:16:30:21 01:16:30:20 01:16:30:21
* FROM CLIP NAME: 001
203 UNKNOWN  V    C        01:16:30:21 01:16:30:22 01:16:30:21 01:16:30:22
* FROM CLIP NAME: 001
204 UNKNOWN  V    C        01:16:30:22 01:16:44:14 01:16:30:22 01:16:44:14
* FROM CLIP NAME: 001
205 UNKNOWN  V    C        01:16:44:14 01:16:44:15 01:16:44:14 01:16:44:15
* FROM CLIP NAME: 001
206 UNKNOWN  V    C        01:16:44:15 01:16:44:16 01:16:44:15 01:16:44:16
* FROM CLIP NAME: 001
207 UNKNOWN  V    C        01:16:44:16 01:16:49:16 01:16:44:16 01:16:49:16
* FROM CLIP NAME: 001
208 UNKNOWN  V    C        01:16:49:16 01:16:49:16 01:16:49:16 01:16:49:16
208 UNKNOWN  V    D    021 01:16:49:16 01:16:50:14 01:16:49:16 01:16:50:14
* FROM CLIP NAME: 001
* TO CLIP NAME: 001
209 UNKNOWN  V    C        01:16:50:14 01:16:50:15 01:16:50:14 01:16:50:15
* FROM CLIP NAME: 001
210 UNKNOWN  V    C        01:16:50:15 01:16:50:15 01:16:50:15 01:16:50:15
210 UNKNOWN  V    D    020 01:16:50:15 01:16:58:20 01:16:50:15 01:16:58:20
* FROM CLIP NAME: 001
* TO CLIP NAME: 001
211 UNKNOWN  V    C        01:16:58:20 01:16:58:24 01:16:58:20 01:16:58:24
* FROM CLIP NAME: 001
212 UNKNOWN  V    C        01:16:58:24 01:17:02:16 01:16:58:24 01:17:02:16
* FROM CLIP NAME: 001
213 UNKNOWN  V    C        01:17:02:16 01:17:15:08 01:17:02:16 01:17:15:08
* FROM CLIP NAME: 001
214 UNKNOWN  V    C        01:17:15:08 01:17:18:05 01:17:15:08 01:17:18:05
* FROM CLIP NAME: 001
215 UNKNOWN  V    C        01:17:18:05 01:17:21:02 01:17:18:05 01:17:21:02
* FROM CLIP NAME: 001
216 UNKNOWN  V    C        01:17:21:02 01:17:23:19 01:17:21:02 01:17:23:19
* FROM CLIP NAME: 001
217 UNKNOWN  V    C        01:17:23:19 01:17:25:14 01:17:23:19 01:17:25:14
* FROM CLIP NAME: 001
218 UNKNOWN  V    C        01:17:25:14 01:17:25:14 01:17:25:14 01:17:25:14
218 UNKNOWN  V    D    005 01:17:25:14 01:17:25:20 01:17:25:14 01:17:25:20
* FROM CLIP NAME: 001
* TO CLIP NAME: 001
219 UNKNOWN  V    C        01:17:25:22 01:17:25:23 01:17:25:20 01:17:25:21
* FROM CLIP NAME: 001
220 UNKNOWN  V    C        01:17:25:24 01:17:26:00 01:17:25:21 01:17:25:22
* FROM CLIP NAME: 001
221 UNKNOWN  V    C        01:17:25:24 01:17:26:00 01:17:25:22 01:17:25:23
* FROM CLIP NAME: 001
222 UNKNOWN  V    C        01:17:25:23 01:17:27:20 01:17:25:23 01:17:27:20
* FROM CLIP NAME: 001
223 UNKNOWN  V    C        01:17:27:20 01:17:27:21 01:17:27:20 01:17:27:21
* FROM CLIP NAME: 001
224 UNKNOWN  V    C        01:17:27:21 01:17:27:21 01:17:27:21 01:17:27:21
224 UNKNOWN  V    D    022 01:17:27:21 01:17:34:19 01:17:27:21 01:17:34:19
* FROM CLIP NAME: 001
* TO CLIP NAME: 001
225 UNKNOWN  V    C        01:17:34:19 01:17:34:22 01:17:34:19 01:17:34:22
* FROM CLIP NAME: 001
226 UNKNOWN  V    C        01:17:34:22 01:18:06:04 01:17:34:22 01:18:06:04
* FROM CLIP NAME: 001
227 UNKNOWN  V    C        02:00:00:00 02:00:21:22 01:18:06:04 01:18:28:01
* FROM CLIP NAME: 001
228 UNKNOWN  V    C        02:00:21:22 02:00:21:23 01:18:28:01 01:18:28:02
* FROM CLIP NAME: 001
229 UNKNOWN  V    C        02:00:21:23 02:00:23:13 01:18:28:02 01:18:29:17
* FROM CLIP NAME: 001
230 UNKNOWN  V    C        02:00:23:13 02:00:23:15 01:18:29:17 01:18:29:19
* FROM CLIP NAME: 001
231 UNKNOWN  V    C        02:00:23:15 02:00:26:11 01:18:29:19 01:18:32:15
* FROM CLIP NAME: 001
232 UNKNOWN  V    C        02:00:26:11 02:00:26:12 01:18:32:15 01:18:32:16
* FROM CLIP NAME: 001
233 UNKNOWN  V    C        02:00:26:12 02:00:28:03 01:18:32:16 01:18:34:07
* FROM CLIP NAME: 001
234 UNKNOWN  V    C        02:00:28:03 02:00:28:04 01:18:34:07 01:18:34:08
* FROM CLIP NAME: 001
235 UNKNOWN  V    C        02:00:28:04 02:00:33:12 01:18:34:08 01:18:39:16
* FROM CLIP NAME: 001
236 UNKNOWN  V    C        02:00:33:12 02:00:36:12 01:18:39:16 01:18:42:16
* FROM CLIP NAME: 001
237 UNKNOWN  V    C        02:00:36:12 02:00:40:09 01:18:42:16 01:18:46:13
* FROM CLIP NAME: 001
238 UNKNOWN  V    C        02:00:40:09 02:00:43:01 01:18:46:13 01:18:49:05
* FROM CLIP NAME: 001
239 UNKNOWN  V    C        02:00:43:01 02:00:56:19 01:18:49:05 01:19:02:23
* FROM CLIP NAME: 001
240 UNKNOWN  V    C        02:00:56:19 02:01:04:04 01:19:02:23 01:19:10:08
* FROM CLIP NAME: 001
241 UNKNOWN  V    C        02:01:04:04 02:01:04:24 01:19:10:08 01:19:11:03
* FROM CLIP NAME: 001
242 UNKNOWN  V    C        02:01:04:24 02:01:05:20 01:19:11:03 01:19:11:24
* FROM CLIP NAME: 001
243 UNKNOWN  V    C        02:01:05:20 02:01:06:12 01:19:11:24 01:19:12:16
* FROM CLIP NAME: 001
244 UNKNOWN  V    C        02:01:06:12 02:01:09:18 01:19:12:16 01:19:15:22
* FROM CLIP NAME: 001
245 UNKNOWN  V    C        02:01:09:18 02:01:11:12 01:19:15:22 01:19:17:16
* FROM CLIP NAME: 001
246 UNKNOWN  V    C        02:01:11:12 02:01:12:19 01:19:17:16 01:19:18:23
* FROM CLIP NAME: 001
247 UNKNOWN  V    C        02:01:12:19 02:01:21:01 01:19:18:23 01:19:27:05
* FROM CLIP NAME: 001
248 UNKNOWN  V    C        02:01:21:01 02:01:40:04 01:19:27:05 01:19:46:08
* FROM CLIP NAME: 001
249 UNKNOWN  V    C        02:01:40:04 02:01:40:05 01:19:46:08 01:19:46:09
* FROM CLIP NAME: 001
250 UNKNOWN  V    C        02:01:40:05 02:01:42:03 01:19:46:09 01:19:48:07
* FROM CLIP NAME: 001
251 UNKNOWN  V    C        02:01:42:03 02:01:42:04 01:19:48:07 01:19:48:08
* FROM CLIP NAME: 001
252 UNKNOWN  V    C        02:01:42:04 02:01:52:24 01:19:48:08 01:19:59:03
* FROM CLIP NAME: 001
253 UNKNOWN  V    C        02:01:52:24 02:01:53:00 01:19:59:03 01:19:59:04
* FROM CLIP NAME: 001
254 UNKNOWN  V    C        02:01:53:00 02:02:17:00 01:19:59:04 01:20:23:04
* FROM CLIP NAME: 001
255 UNKNOWN  V    C        02:02:17:00 02:02:19:00 01:20:23:04 01:20:25:04
* FROM CLIP NAME: 001
256 UNKNOWN  V    C        02:02:19:00 02:02:19:01 01:20:25:04 01:20:25:05
* FROM CLIP NAME: 001
257 UNKNOWN  V    C        02:02:19:01 02:02:27:02 01:20:25:05 01:20:33:06
* FROM CLIP NAME: 001
258 UNKNOWN  V    C        02:02:27:02 02:02:27:03 01:20:33:06 01:20:33:07
* FROM CLIP NAME: 001
259 UNKNOWN  V    C        02:02:27:03 02:02:43:02 01:20:33:07 01:20:49:06
* FROM CLIP NAME: 001
260 UNKNOWN  V    C        02:02:43:02 02:02:43:02 01:20:49:06 01:20:49:06
260 UNKNOWN  V    D    021 02:02:43:02 02:02:43:24 01:20:49:06 01:20:50:03
* FROM CLIP NAME: 001
* TO CLIP NAME: 001
261 UNKNOWN  V    C        02:02:43:24 02:02:44:00 01:20:50:03 01:20:50:04
* FROM CLIP NAME: 001
262 UNKNOWN  V    C        02:02:44:00 02:02:44:00 01:20:50:04 01:20:50:04
262 UNKNOWN  V    D    018 02:02:44:00 02:02:50:14 01:20:50:04 01:20:56:18
* FROM CLIP NAME: 001
* TO CLIP NAME: 001
263 UNKNOWN  V    C        02:02:50:14 02:02:50:15 01:20:56:18 01:20:56:19
* FROM CLIP NAME: 001
264 UNKNOWN  V    C        02:02:50:15 02:02:52:11 01:20:56:19 01:20:58:15
* FROM CLIP NAME: 001
265 UNKNOWN  V    C        02:02:52:11 02:02:58:01 01:20:58:15 01:21:04:05
* FROM CLIP NAME: 001
266 UNKNOWN  V    C        02:02:58:01 02:03:15:23 01:21:04:05 01:21:22:02
* FROM CLIP NAME: 001
267 UNKNOWN  V    C        02:03:15:23 02:03:17:19 01:21:22:02 01:21:23:23
* FROM CLIP NAME: 001
268 UNKNOWN  V    C        02:03:17:19 02:03:28:20 01:21:23:23 01:21:34:24
* FROM CLIP NAME: 001
269 UNKNOWN  V    C        02:03:28:20 02:03:28:20 01:21:34:24 01:21:34:24
269 UNKNOWN  V    D    029 02:03:28:20 02:03:29:24 01:21:34:24 01:21:36:03
* FROM CLIP NAME: 001
* TO CLIP NAME: 001
270 UNKNOWN  V    C        02:03:29:24 02:03:30:00 01:21:36:03 01:21:36:04
* FROM CLIP NAME: 001
271 UNKNOWN  V    C        02:03:30:00 02:03:30:03 01:21:36:04 01:21:36:07
* FROM CLIP NAME: 001
272 UNKNOWN  V    C        02:03:30:03 02:03:30:03 01:21:36:07 01:21:36:07
272 UNKNOWN  V    D    042 02:03:30:03 02:03:36:09 01:21:36:07 01:21:42:13
* FROM CLIP NAME: 001
* TO CLIP NAME: 001
273 UNKNOWN  V    C        02:03:36:09 02:03:36:10 01:21:42:13 01:21:42:14
* FROM CLIP NAME: 001
274 UNKNOWN  V    C        02:03:36:10 02:03:36:13 01:21:42:14 01:21:42:17
* FROM CLIP NAME: 001
275 UNKNOWN  V    C        02:03:36:13 02:03:37:17 01:21:42:17 01:21:43:21
* FROM CLIP NAME: 001
276 UNKNOWN  V    C        02:03:37:17 02:03:37:19 01:21:43:21 01:21:43:23
* FROM CLIP NAME: 001
277 UNKNOWN  V    C        02:03:37:19 02:03:43:18 01:21:43:23 01:21:49:22
* FROM CLIP NAME: 001
278 UNKNOWN  V    C        02:03:43:18 02:03:43:18 01:21:49:22 01:21:49:22
278 UNKNOWN  V    D    028 02:03:43:18 02:03:46:06 01:21:49:22 01:21:52:10
* FROM CLIP NAME: 001
* TO CLIP NAME: 001
279 UNKNOWN  V    C        02:03:46:06 02:03:46:07 01:21:52:10 01:21:52:11
* FROM CLIP NAME: 001
280 UNKNOWN  V    C        02:03:46:07 02:03:47:03 01:21:52:11 01:21:53:07
* FROM CLIP NAME: 001
281 UNKNOWN  V    C        02:03:47:03 02:03:47:05 01:21:53:07 01:21:53:09
* FROM CLIP NAME: 001
282 UNKNOWN  V    C        02:03:47:05 02:03:51:23 01:21:53:09 01:21:58:02
* FROM CLIP NAME: 001
283 UNKNOWN  V    C        02:03:51:23 02:03:54:07 01:21:58:02 01:22:00:11
* FROM CLIP NAME: 001
284 UNKNOWN  V    C        02:03:54:07 02:03:57:03 01:22:00:11 01:22:03:07
* FROM CLIP NAME: 001
285 UNKNOWN  V    C        02:03:57:03 02:03:57:11 01:22:03:07 01:22:03:15
* FROM CLIP NAME: 001
286 UNKNOWN  V    C        02:03:57:11 02:03:57:12 01:22:03:15 01:22:03:16
* FROM CLIP NAME: 001
287 UNKNOWN  V    C        02:03:57:12 02:03:59:04 01:22:03:16 01:22:05:08
* FROM CLIP NAME: 001
288 UNKNOWN  V    C        02:03:59:04 02:04:22:16 01:22:05:08 01:22:28:20
* FROM CLIP NAME: 001
289 UNKNOWN  V    C        02:04:22:16 02:04:24:23 01:22:28:20 01:22:31:02
* FROM CLIP NAME: 001
290 UNKNOWN  V    C        02:04:24:23 02:04:43:17 01:22:31:02 01:22:49:21
* FROM CLIP NAME: 001
291 UNKNOWN  V    C        02:04:43:17 02:04:44:22 01:22:49:21 01:22:51:01
* FROM CLIP NAME: 001
292 UNKNOWN  V    C        02:04:44:22 02:04:49:20 01:22:51:01 01:22:55:24
* FROM CLIP NAME: 001
293 UNKNOWN  V    C        02:04:49:20 02:05:00:06 01:22:55:24 01:23:06:10
* FROM CLIP NAME: 001
294 UNKNOWN  V    C        02:05:00:06 02:05:07:00 01:23:06:10 01:23:13:04
* FROM CLIP NAME: 001
295 UNKNOWN  V    C        02:05:07:00 02:05:21:16 01:23:13:04 01:23:27:20
* FROM CLIP NAME: 001
296 UNKNOWN  V    C        02:05:21:16 02:05:23:01 01:23:27:20 01:23:29:05
* FROM CLIP NAME: 001
297 UNKNOWN  V    C        02:05:23:01 02:06:22:17 01:23:29:05 01:24:28:21
* FROM CLIP NAME: 001
298 UNKNOWN  V    C        02:06:22:17 02:06:45:22 01:24:28:21 01:24:52:01
* FROM CLIP NAME: 001
299 UNKNOWN  V    C        02:06:45:22 02:07:00:17 01:24:52:01 01:25:06:21
* FROM CLIP NAME: 001
300 UNKNOWN  V    C        02:07:00:17 02:07:00:20 01:25:06:21 01:25:06:24
* FROM CLIP NAME: 001
301 UNKNOWN  V    C        02:07:00:20 02:07:11:17 01:25:06:24 01:25:17:21
* FROM CLIP NAME: 001
302 UNKNOWN  V    C        02:07:11:17 02:07:15:17 01:25:17:21 01:25:21:21
* FROM CLIP NAME: 001
303 UNKNOWN  V    C        02:07:15:17 02:07:17:01 01:25:21:21 01:25:23:05
* FROM CLIP NAME: 001
304 UNKNOWN  V    C        02:07:17:01 02:07:20:17 01:25:23:05 01:25:26:21
* FROM CLIP NAME: 001
305 UNKNOWN  V    C        02:07:20:17 02:07:22:19 01:25:26:21 01:25:28:23
* FROM CLIP NAME: 001
306 UNKNOWN  V    C        02:07:22:19 02:07:26:12 01:25:28:23 01:25:32:16
* FROM CLIP NAME: 001
307 UNKNOWN  V    C        02:07:26:12 02:07:30:01 01:25:32:16 01:25:36:05
* FROM CLIP NAME: 001
308 UNKNOWN  V    C        02:07:30:01 02:07:45:21 01:25:36:05 01:25:52:00
* FROM CLIP NAME: 001
309 UNKNOWN  V    C        02:07:45:21 02:07:59:17 01:25:52:00 01:26:05:21
* FROM CLIP NAME: 001
310 UNKNOWN  V    C        02:07:59:17 02:08:02:00 01:26:05:21 01:26:08:04
* FROM CLIP NAME: 001
311 UNKNOWN  V    C        02:08:02:00 02:08:17:03 01:26:08:04 01:26:23:07
* FROM CLIP NAME: 001
312 UNKNOWN  V    C        02:08:17:03 02:08:25:18 01:26:23:07 01:26:31:22
* FROM CLIP NAME: 001
313 UNKNOWN  V    C        02:08:25:18 02:08:27:20 01:26:31:22 01:26:33:24
* FROM CLIP NAME: 001
314 UNKNOWN  V    C        02:08:27:20 02:08:41:07 01:26:33:24 01:26:47:11
* FROM CLIP NAME: 001
315 UNKNOWN  V    C        02:08:41:07 02:08:43:15 01:26:47:11 01:26:49:19
* FROM CLIP NAME: 001
316 UNKNOWN  V    C        02:08:43:15 02:08:47:20 01:26:49:19 01:26:53:24
* FROM CLIP NAME: 001
317 UNKNOWN  V    C        02:08:47:20 02:08:49:02 01:26:53:24 01:26:55:06
* FROM CLIP NAME: 001
318 UNKNOWN  V    C        02:08:49:02 02:08:55:10 01:26:55:06 01:27:01:14
* FROM CLIP NAME: 001
319 UNKNOWN  V    C        02:08:55:10 02:09:04:20 01:27:01:14 01:27:10:24
* FROM CLIP NAME: 001
320 UNKNOWN  V    C        02:09:04:20 02:09:10:08 01:27:10:24 01:27:16:12
* FROM CLIP NAME: 001
321 UNKNOWN  V    C        02:09:10:08 02:09:18:06 01:27:16:12 01:27:24:10
* FROM CLIP NAME: 001
322 UNKNOWN  V    C        02:09:18:06 02:09:22:19 01:27:24:10 01:27:28:23
* FROM CLIP NAME: 001
323 UNKNOWN  V    C        02:09:22:19 02:09:36:10 01:27:28:23 01:27:42:14
* FROM CLIP NAME: 001
324 UNKNOWN  V    C        02:09:36:10 02:09:49:24 01:27:42:14 01:27:56:03
* FROM CLIP NAME: 001
325 UNKNOWN  V    C        02:09:49:24 02:10:23:05 01:27:56:03 01:28:29:09
* FROM CLIP NAME: 001
326 UNKNOWN  V    C        02:10:23:05 02:10:41:04 01:28:29:09 01:28:47:08
* FROM CLIP NAME: 001
327 UNKNOWN  V    C        02:10:41:04 02:10:45:11 01:28:47:08 01:28:51:15
* FROM CLIP NAME: 001
328 UNKNOWN  V    C        02:10:45:11 02:10:53:23 01:28:51:15 01:29:00:02
* FROM CLIP NAME: 001
329 UNKNOWN  V    C        02:10:53:23 02:10:54:01 01:29:00:02 01:29:00:05
* FROM CLIP NAME: 001
330 UNKNOWN  V    C        02:10:54:01 02:11:04:05 01:29:00:05 01:29:10:09
* FROM CLIP NAME: 001
331 UNKNOWN  V    C        02:11:04:05 02:11:04:06 01:29:10:09 01:29:10:10
* FROM CLIP NAME: 001
332 UNKNOWN  V    C        02:11:04:06 02:11:11:15 01:29:10:10 01:29:17:19
* FROM CLIP NAME: 001
333 UNKNOWN  V    C        02:11:11:15 02:11:11:16 01:29:17:19 01:29:17:20
* FROM CLIP NAME: 001
334 UNKNOWN  V    C        02:11:11:16 02:11:14:18 01:29:17:20 01:29:20:22
* FROM CLIP NAME: 001
335 UNKNOWN  V    C        02:11:14:18 02:11:26:17 01:29:20:22 01:29:32:21
* FROM CLIP NAME: 001
336 UNKNOWN  V    C        02:11:26:17 02:11:37:03 01:29:32:21 01:29:43:07
* FROM CLIP NAME: 001
337 UNKNOWN  V    C        02:11:37:03 02:11:40:23 01:29:43:07 01:29:47:02
* FROM CLIP NAME: 001
338 UNKNOWN  V    C        02:11:40:23 02:11:47:22 01:29:47:02 01:29:54:01
* FROM CLIP NAME: 001
339 UNKNOWN  V    C        02:11:47:22 02:12:01:08 01:29:54:01 01:30:07:12
* FROM CLIP NAME: 001
340 UNKNOWN  V    C        02:12:01:08 02:12:04:07 01:30:07:12 01:30:10:11
* FROM CLIP NAME: 001
341 UNKNOWN  V    C        02:12:04:07 02:12:12:00 01:30:10:11 01:30:18:04
* FROM CLIP NAME: 001
342 UNKNOWN  V    C        02:12:12:00 02:12:12:03 01:30:18:04 01:30:18:07
* FROM CLIP NAME: 001
343 UNKNOWN  V    C        02:12:12:03 02:12:14:18 01:30:18:07 01:30:20:22
* FROM CLIP NAME: 001
344 UNKNOWN  V    C        02:12:14:18 02:12:17:19 01:30:20:22 01:30:23:23
* FROM CLIP NAME: 001
345 UNKNOWN  V    C        02:12:17:19 02:12:21:22 01:30:23:23 01:30:28:01
* FROM CLIP NAME: 001
346 UNKNOWN  V    C        02:12:21:22 02:12:24:00 01:30:28:01 01:30:30:04
* FROM CLIP NAME: 001
347 UNKNOWN  V    C        02:12:24:00 02:12:25:07 01:30:30:04 01:30:31:11
* FROM CLIP NAME: 001
348 UNKNOWN  V    C        02:12:25:07 02:12:27:08 01:30:31:11 01:30:33:12
* FROM CLIP NAME: 001
349 UNKNOWN  V    C        02:12:27:08 02:12:29:12 01:30:33:12 01:30:35:16
* FROM CLIP NAME: 001
350 UNKNOWN  V    C        02:12:29:12 02:12:29:15 01:30:35:16 01:30:35:19
* FROM CLIP NAME: 001
351 UNKNOWN  V    C        02:12:29:15 02:12:35:03 01:30:35:19 01:30:41:07
* FROM CLIP NAME: 001
352 UNKNOWN  V    C        02:12:35:03 02:12:35:03 01:30:41:07 01:30:41:07
352 UNKNOWN  V    D    030 02:12:35:03 02:12:38:07 01:30:41:07 01:30:44:11
* FROM CLIP NAME: 001
* TO CLIP NAME: 001
353 UNKNOWN  V    C        02:12:38:07 02:12:38:07 01:30:44:11 01:30:44:11
353 UNKNOWN  V    D    030 02:12:38:07 02:12:41:21 01:30:44:11 01:30:48:00
* FROM CLIP NAME: 001
* TO CLIP NAME: 001
354 UNKNOWN  V    C        02:12:41:21 02:12:44:17 01:30:48:00 01:30:50:21
* FROM CLIP NAME: 001
355 UNKNOWN  V    C        02:12:44:17 02:12:46:19 01:30:50:21 01:30:52:23
* FROM CLIP NAME: 001
356 UNKNOWN  V    C        02:12:46:19 02:12:51:06 01:30:52:23 01:30:57:10
* FROM CLIP NAME: 001
357 UNKNOWN  V    C        02:12:51:06 02:12:54:02 01:30:57:10 01:31:00:06
* FROM CLIP NAME: 001
358 UNKNOWN  V    C        02:12:54:02 02:12:54:02 01:31:00:06 01:31:00:06
358 UNKNOWN  V    D    020 02:12:54:02 02:12:57:05 01:31:00:06 01:31:03:09
* FROM CLIP NAME: 001
* TO CLIP NAME: 001
359 UNKNOWN  V    C        02:12:57:05 02:13:02:13 01:31:03:09 01:31:08:17
* FROM CLIP NAME: 001
360 UNKNOWN  V    C        02:13:02:13 02:13:09:12 01:31:08:17 01:31:15:16
* FROM CLIP NAME: 001
361 UNKNOWN  V    C        02:13:09:12 02:13:17:07 01:31:15:16 01:31:23:11
* FROM CLIP NAME: 001
362 UNKNOWN  V    C        02:13:17:07 02:13:20:10 01:31:23:11 01:31:26:14
* FROM CLIP NAME: 001
363 UNKNOWN  V    C        02:13:20:10 02:13:41:00 01:31:26:14 01:31:47:04
* FROM CLIP NAME: 001
364 UNKNOWN  V    C        02:13:41:00 02:13:57:18 01:31:47:04 01:32:03:22
* FROM CLIP NAME: 001
365 UNKNOWN  V    C        02:13:57:18 02:14:09:01 01:32:03:22 01:32:15:05
* FROM CLIP NAME: 001
366 UNKNOWN  V    C        02:14:09:01 02:14:09:03 01:32:15:05 01:32:15:07
* FROM CLIP NAME: 001
367 UNKNOWN  V    C        02:14:09:03 02:14:12:16 01:32:15:07 01:32:18:20
* FROM CLIP NAME: 001
368 UNKNOWN  V    C        02:14:12:16 02:14:15:12 01:32:18:20 01:32:21:16
* FROM CLIP NAME: 001
369 UNKNOWN  V    C        02:14:15:12 02:14:29:21 01:32:21:16 01:32:36:00
* FROM CLIP NAME: 001
370 UNKNOWN  V    C        02:14:29:21 02:14:34:09 01:32:36:00 01:32:40:13
* FROM CLIP NAME: 001
371 UNKNOWN  V    C        02:14:34:09 02:14:37:07 01:32:40:13 01:32:43:11
* FROM CLIP NAME: 001
372 UNKNOWN  V    C        02:14:37:07 02:14:44:18 01:32:43:11 01:32:50:22
* FROM CLIP NAME: 001
373 UNKNOWN  V    C        02:14:44:18 02:14:52:03 01:32:50:22 01:32:58:07
* FROM CLIP NAME: 001
374 UNKNOWN  V    C        02:14:52:03 02:14:55:16 01:32:58:07 01:33:01:20
* FROM CLIP NAME: 001
375 UNKNOWN  V    C        02:14:55:16 02:15:17:19 01:33:01:20 01:33:23:23
* FROM CLIP NAME: 001
376 UNKNOWN  V    C        02:15:17:19 02:15:24:19 01:33:23:23 01:33:30:23
* FROM CLIP NAME: 001
377 UNKNOWN  V    C        02:15:24:19 02:15:27:10 01:33:30:23 01:33:33:14
* FROM CLIP NAME: 001
378 UNKNOWN  V    C        02:15:27:10 02:15:31:00 01:33:33:14 01:33:37:04
* FROM CLIP NAME: 001
379 UNKNOWN  V    C        02:15:31:00 02:15:33:16 01:33:37:04 01:33:39:20
* FROM CLIP NAME: 001
380 UNKNOWN  V    C        02:15:33:16 02:15:35:07 01:33:39:20 01:33:41:11
* FROM CLIP NAME: 001
381 UNKNOWN  V    C        02:15:35:07 02:15:43:18 01:33:41:11 01:33:49:22
* FROM CLIP NAME: 001
382 UNKNOWN  V    C        02:15:43:18 02:15:46:05 01:33:49:22 01:33:52:09
* FROM CLIP NAME: 001
383 UNKNOWN  V    C        02:15:46:05 02:15:50:22 01:33:52:09 01:33:57:01
* FROM CLIP NAME: 001
384 UNKNOWN  V    C        02:15:50:22 02:15:54:07 01:33:57:01 01:34:00:11
* FROM CLIP NAME: 001
385 UNKNOWN  V    C        02:15:54:07 02:15:55:13 01:34:00:11 01:34:01:17
* FROM CLIP NAME: 001
386 UNKNOWN  V    C        02:15:55:13 02:15:57:06 01:34:01:17 01:34:03:10
* FROM CLIP NAME: 001
387 UNKNOWN  V    C        02:15:57:06 02:16:00:08 01:34:03:10 01:34:06:12
* FROM CLIP NAME: 001
388 UNKNOWN  V    C        02:16:00:08 02:16:01:21 01:34:06:12 01:34:08:00
* FROM CLIP NAME: 001
389 UNKNOWN  V    C        02:16:01:21 02:16:03:24 01:34:08:00 01:34:10:03
* FROM CLIP NAME: 001
390 UNKNOWN  V    C        02:16:03:24 02:16:07:24 01:34:10:03 01:34:14:03
* FROM CLIP NAME: 001
391 UNKNOWN  V    C        02:16:07:24 02:16:08:01 01:34:14:03 01:34:14:05
* FROM CLIP NAME: 001
392 UNKNOWN  V    C        02:16:08:01 02:16:14:20 01:34:14:05 01:34:20:24
* FROM CLIP NAME: 001
393 UNKNOWN  V    C        02:16:14:20 02:16:17:10 01:34:20:24 01:34:23:14
* FROM CLIP NAME: 001
394 UNKNOWN  V    C        02:16:17:10 02:16:20:02 01:34:23:14 01:34:26:06
* FROM CLIP NAME: 001
395 UNKNOWN  V    C        02:16:20:02 02:16:24:11 01:34:26:06 01:34:30:15
* FROM CLIP NAME: 001
396 UNKNOWN  V    C        02:16:24:11 02:16:26:21 01:34:30:15 01:34:33:00
* FROM CLIP NAME: 001
397 UNKNOWN  V    C        02:16:26:21 02:16:29:00 01:34:33:00 01:34:35:04
* FROM CLIP NAME: 001
398 UNKNOWN  V    C        02:16:29:00 02:16:33:14 01:34:35:04 01:34:39:18
* FROM CLIP NAME: 001
399 UNKNOWN  V    C        02:16:33:14 02:16:36:10 01:34:39:18 01:34:42:14
* FROM CLIP NAME: 001
400 UNKNOWN  V    C        02:16:36:10 02:16:46:11 01:34:42:14 01:34:52:15
* FROM CLIP NAME: 001
401 UNKNOWN  V    C        02:16:46:11 02:16:49:05 01:34:52:15 01:34:55:09
* FROM CLIP NAME: 001
402 UNKNOWN  V    C        02:16:49:05 02:16:49:07 01:34:55:09 01:34:55:11
* FROM CLIP NAME: 001
403 UNKNOWN  V    C        02:16:49:07 02:16:53:07 01:34:55:11 01:34:59:11
* FROM CLIP NAME: 001
404 UNKNOWN  V    C        02:16:53:07 02:16:53:08 01:34:59:11 01:34:59:12
* FROM CLIP NAME: 001
405 UNKNOWN  V    C        02:16:53:08 02:16:57:20 01:34:59:12 01:35:03:24
* FROM CLIP NAME: 001
406 UNKNOWN  V    C        02:16:57:20 02:17:15:12 01:35:03:24 01:35:21:16
* FROM CLIP NAME: 001
407 UNKNOWN  V    C        02:17:15:12 02:17:19:17 01:35:21:16 01:35:25:21
* FROM CLIP NAME: 001
408 UNKNOWN  V    C        02:17:19:17 02:17:23:03 01:35:25:21 01:35:29:07
* FROM CLIP NAME: 001
409 UNKNOWN  V    C        02:17:23:03 02:17:28:23 01:35:29:07 01:35:35:02
* FROM CLIP NAME: 001
410 UNKNOWN  V    C        02:17:28:23 02:17:30:23 01:35:35:02 01:35:37:02
* FROM CLIP NAME: 001
411 UNKNOWN  V    C        02:17:30:23 02:17:35:06 01:35:37:02 01:35:41:10
* FROM CLIP NAME: 001
412 UNKNOWN  V    C        02:17:35:06 02:17:41:02 01:35:41:10 01:35:47:06
* FROM CLIP NAME: 001
413 UNKNOWN  V    C        02:17:41:02 02:17:44:07 01:35:47:06 01:35:50:11
* FROM CLIP NAME: 001
414 UNKNOWN  V    C        02:17:44:07 02:18:09:24 01:35:50:11 01:36:16:03
* FROM CLIP NAME: 001
415 UNKNOWN  V    C        02:18:09:24 02:18:13:10 01:36:16:03 01:36:19:14
* FROM CLIP NAME: 001
416 UNKNOWN  V    C        02:18:13:10 02:18:16:08 01:36:19:14 01:36:22:12
* FROM CLIP NAME: 001
417 UNKNOWN  V    C        02:18:16:08 02:18:18:14 01:36:22:12 01:36:24:18
* FROM CLIP NAME: 001
418 UNKNOWN  V    C        02:18:18:14 02:18:20:15 01:36:24:18 01:36:26:19
* FROM CLIP NAME: 001
419 UNKNOWN  V    C        02:18:20:15 02:18:25:00 01:36:26:19 01:36:31:04
* FROM CLIP NAME: 001
420 UNKNOWN  V    C        02:18:25:00 02:18:27:01 01:36:31:04 01:36:33:05
* FROM CLIP NAME: 001
421 UNKNOWN  V    C        02:18:27:01 02:18:27:04 01:36:33:05 01:36:33:08
* FROM CLIP NAME: 001
422 UNKNOWN  V    C        02:18:27:04 02:18:35:10 01:36:33:08 01:36:41:14
* FROM CLIP NAME: 001
423 UNKNOWN  V    C        02:18:35:10 02:18:35:11 01:36:41:14 01:36:41:15
* FROM CLIP NAME: 001
424 UNKNOWN  V    C        02:18:35:11 02:18:37:20 01:36:41:15 01:36:43:24
* FROM CLIP NAME: 001
425 UNKNOWN  V    C        02:18:37:20 02:18:39:15 01:36:43:24 01:36:45:19
* FROM CLIP NAME: 001
426 UNKNOWN  V    C        02:18:39:15 02:18:42:04 01:36:45:19 01:36:48:08
* FROM CLIP NAME: 001
427 UNKNOWN  V    C        02:18:42:04 02:18:45:13 01:36:48:08 01:36:51:17
* FROM CLIP NAME: 001
428 UNKNOWN  V    C        02:18:45:13 02:18:45:13 01:36:51:17 01:36:51:17
428 UNKNOWN  V    D    015 02:18:45:13 02:18:46:05 01:36:51:17 01:36:52:09
* FROM CLIP NAME: 001
* TO CLIP NAME: 001
429 UNKNOWN  V    C        03:00:00:00 03:00:00:01 01:36:52:09 01:36:52:10
* FROM CLIP NAME: 001
430 UNKNOWN  V    C        03:00:00:01 03:00:00:01 01:36:52:10 01:36:52:10
430 UNKNOWN  V    D    030 03:00:00:01 03:00:05:16 01:36:52:10 01:36:58:00
* FROM CLIP NAME: 001
* TO CLIP NAME: 001
431 UNKNOWN  V    C        03:00:05:16 03:00:24:13 01:36:58:00 01:37:16:22
* FROM CLIP NAME: 001
432 UNKNOWN  V    C        03:00:24:13 03:00:24:13 01:37:16:22 01:37:16:22
432 UNKNOWN  V    D    036 03:00:24:13 03:00:30:17 01:37:16:22 01:37:23:01
* FROM CLIP NAME: 001
* TO CLIP NAME: 001
433 UNKNOWN  V    C        03:00:30:17 03:00:39:18 01:37:23:01 01:37:32:02
* FROM CLIP NAME: 001
434 UNKNOWN  V    C        03:00:39:18 03:00:39:19 01:37:32:02 01:37:32:03
* FROM CLIP NAME: 001
435 UNKNOWN  V    C        03:00:39:19 03:00:46:05 01:37:32:03 01:37:38:14
* FROM CLIP NAME: 001
436 UNKNOWN  V    C        03:00:46:05 03:00:46:05 01:37:38:14 01:37:38:14
436 UNKNOWN  V    D    026 03:00:46:05 03:00:52:08 01:37:38:14 01:37:44:17
* FROM CLIP NAME: 001
* TO CLIP NAME: 001
437 UNKNOWN  V    C        03:00:52:08 03:00:52:08 01:37:44:17 01:37:44:17
437 UNKNOWN  V    D    025 03:00:52:08 03:00:58:17 01:37:44:17 01:37:51:01
* FROM CLIP NAME: 001
* TO CLIP NAME: 001
438 UNKNOWN  V    C        03:00:58:17 03:01:06:08 01:37:51:01 01:37:58:17
* FROM CLIP NAME: 001
439 UNKNOWN  V    C        03:01:06:08 03:01:14:16 01:37:58:17 01:38:07:00
* FROM CLIP NAME: 001
440 UNKNOWN  V    C        03:01:14:16 03:01:22:13 01:38:07:00 01:38:14:22
* FROM CLIP NAME: 001
441 UNKNOWN  V    C        03:01:22:13 03:01:23:15 01:38:14:22 01:38:15:24
* FROM CLIP NAME: 001
442 UNKNOWN  V    C        03:01:23:15 03:01:23:17 01:38:15:24 01:38:16:01
* FROM CLIP NAME: 001
443 UNKNOWN  V    C        03:01:23:17 03:01:35:08 01:38:16:01 01:38:27:17
* FROM CLIP NAME: 001
444 UNKNOWN  V    C        03:01:35:08 03:01:49:20 01:38:27:17 01:38:42:04
* FROM CLIP NAME: 001
445 UNKNOWN  V    C        03:01:49:20 03:01:49:22 01:38:42:04 01:38:42:06
* FROM CLIP NAME: 001
446 UNKNOWN  V    C        03:01:49:22 03:01:59:19 01:38:42:06 01:38:52:03
* FROM CLIP NAME: 001
447 UNKNOWN  V    C        03:01:59:19 03:02:10:24 01:38:52:03 01:39:03:08
* FROM CLIP NAME: 001
448 UNKNOWN  V    C        03:02:10:24 03:02:29:22 01:39:03:08 01:39:22:06
* FROM CLIP NAME: 001
449 UNKNOWN  V    C        03:02:29:22 03:02:29:24 01:39:22:06 01:39:22:08
* FROM CLIP NAME: 001
450 UNKNOWN  V    C        03:02:29:24 03:02:36:13 01:39:22:08 01:39:28:22
* FROM CLIP NAME: 001
451 UNKNOWN  V    C        03:02:36:13 03:02:48:14 01:39:28:22 01:39:40:23
* FROM CLIP NAME: 001
452 UNKNOWN  V    C        03:02:48:14 03:02:51:15 01:39:40:23 01:39:43:24
* FROM CLIP NAME: 001
453 UNKNOWN  V    C        03:02:51:15 03:02:54:20 01:39:43:24 01:39:47:04
* FROM CLIP NAME: 001
454 UNKNOWN  V    C        03:02:54:20 03:02:54:23 01:39:47:04 01:39:47:07
* FROM CLIP NAME: 001
455 UNKNOWN  V    C        03:02:54:23 03:03:02:07 01:39:47:07 01:39:54:16
* FROM CLIP NAME: 001
456 UNKNOWN  V    C        03:03:02:07 03:03:10:06 01:39:54:16 01:40:02:15
* FROM CLIP NAME: 001
457 UNKNOWN  V    C        03:03:10:06 03:03:16:12 01:40:02:15 01:40:08:21
* FROM CLIP NAME: 001
458 UNKNOWN  V    C        03:03:16:12 03:03:39:10 01:40:08:21 01:40:31:19
* FROM CLIP NAME: 001
459 UNKNOWN  V    C        03:03:39:10 03:03:51:18 01:40:31:19 01:40:44:02
* FROM CLIP NAME: 001
460 UNKNOWN  V    C        03:03:51:18 03:04:01:18 01:40:44:02 01:40:54:02
* FROM CLIP NAME: 001
461 UNKNOWN  V    C        03:04:01:18 03:04:01:20 01:40:54:02 01:40:54:04
* FROM CLIP NAME: 001
462 UNKNOWN  V    C        03:04:01:20 03:04:11:00 01:40:54:04 01:41:03:09
* FROM CLIP NAME: 001
463 UNKNOWN  V    C        03:04:11:00 03:04:46:16 01:41:03:09 01:41:39:00
* FROM CLIP NAME: 001
464 UNKNOWN  V    C        03:04:46:16 03:04:46:18 01:41:39:00 01:41:39:02
* FROM CLIP NAME: 001
465 UNKNOWN  V    C        03:04:46:18 03:04:50:15 01:41:39:02 01:41:42:24
* FROM CLIP NAME: 001
466 UNKNOWN  V    C        03:04:50:15 03:04:55:05 01:41:42:24 01:41:47:14
* FROM CLIP NAME: 001
467 UNKNOWN  V    C        03:04:55:05 03:04:59:15 01:41:47:14 01:41:51:24
* FROM CLIP NAME: 001
468 UNKNOWN  V    C        03:04:59:15 03:04:59:17 01:41:51:24 01:41:52:01
* FROM CLIP NAME: 001
469 UNKNOWN  V    C        03:04:59:17 03:05:04:24 01:41:52:01 01:41:57:08
* FROM CLIP NAME: 001
470 UNKNOWN  V    C        03:05:04:24 03:05:09:03 01:41:57:08 01:42:01:12
* FROM CLIP NAME: 001
471 UNKNOWN  V    C        03:05:09:03 03:05:13:07 01:42:01:12 01:42:05:16
* FROM CLIP NAME: 001
472 UNKNOWN  V    C        03:05:13:07 03:05:16:23 01:42:05:16 01:42:09:07
* FROM CLIP NAME: 001
473 UNKNOWN  V    C        03:05:16:23 03:05:29:24 01:42:09:07 01:42:22:08
* FROM CLIP NAME: 001
474 UNKNOWN  V    C        03:05:29:24 03:05:45:04 01:42:22:08 01:42:37:13
* FROM CLIP NAME: 001
475 UNKNOWN  V    C        03:05:45:04 03:05:49:13 01:42:37:13 01:42:41:22
* FROM CLIP NAME: 001
476 UNKNOWN  V    C        03:05:49:13 03:05:56:11 01:42:41:22 01:42:48:20
* FROM CLIP NAME: 001
477 UNKNOWN  V    C        03:05:56:11 03:06:19:23 01:42:48:20 01:43:12:07
* FROM CLIP NAME: 001
478 UNKNOWN  V    C        03:06:19:23 03:06:19:23 01:43:12:07 01:43:12:07
478 UNKNOWN  V    D    049 03:06:19:23 03:06:27:15 01:43:12:07 01:43:19:24
* FROM CLIP NAME: 001
* TO CLIP NAME: 001
479 UNKNOWN  V    C        03:06:27:15 03:06:35:12 01:43:19:24 01:43:27:21
* FROM CLIP NAME: 001
480 UNKNOWN  V    C        03:06:35:12 03:06:42:15 01:43:27:21 01:43:34:24
* FROM CLIP NAME: 001
481 UNKNOWN  V    C        03:06:42:15 03:07:04:17 01:43:34:24 01:43:57:01
* FROM CLIP NAME: 001
482 UNKNOWN  V    C        03:07:04:17 03:07:04:18 01:43:57:01 01:43:57:02
* FROM CLIP NAME: 001
483 UNKNOWN  V    C        03:07:04:18 03:07:22:15 01:43:57:02 01:44:14:24
* FROM CLIP NAME: 001
484 UNKNOWN  V    C        03:07:22:15 03:07:22:17 01:44:14:24 01:44:15:01
* FROM CLIP NAME: 001
485 UNKNOWN  V    C        03:07:22:17 03:07:28:01 01:44:15:01 01:44:20:10
* FROM CLIP NAME: 001
486 UNKNOWN  V    C        03:07:28:01 03:07:28:02 01:44:20:10 01:44:20:11
* FROM CLIP NAME: 001
487 UNKNOWN  V    C        03:07:28:02 03:07:43:21 01:44:20:11 01:44:36:05
* FROM CLIP NAME: 001
488 UNKNOWN  V    C        03:07:43:21 03:08:10:07 01:44:36:05 01:45:02:16
* FROM CLIP NAME: 001
489 UNKNOWN  V    C        03:08:10:07 03:08:10:07 01:45:02:16 01:45:02:16
489 UNKNOWN  V    D    031 03:08:10:07 03:08:19:17 01:45:02:16 01:45:12:01
* FROM CLIP NAME: 001
* TO CLIP NAME: 001
490 UNKNOWN  V    C        03:08:19:17 03:08:28:08 01:45:12:01 01:45:20:17
* FROM CLIP NAME: 001
491 UNKNOWN  V    C        03:08:28:08 03:08:43:19 01:45:20:17 01:45:36:03
* FROM CLIP NAME: 001
492 UNKNOWN  V    C        03:08:43:19 03:08:50:11 01:45:36:03 01:45:42:20
* FROM CLIP NAME: 001
493 UNKNOWN  V    C        03:08:50:11 03:08:50:11 01:45:42:20 01:45:42:20
493 UNKNOWN  V    D    035 03:08:50:11 03:08:51:23 01:45:42:20 01:45:44:07
* FROM CLIP NAME: 001
* TO CLIP NAME: 001
494 UNKNOWN  V    C        03:08:51:23 03:08:51:24 01:45:44:07 01:45:44:08
* FROM CLIP NAME: 001
495 UNKNOWN  V    C        03:08:51:24 03:08:51:24 01:45:44:08 01:45:44:08
495 UNKNOWN  V    D    017 03:08:51:24 03:08:58:17 01:45:44:08 01:45:51:01
* FROM CLIP NAME: 001
* TO CLIP NAME: 001
496 UNKNOWN  V    C        03:08:58:17 03:09:01:12 01:45:51:01 01:45:53:21
* FROM CLIP NAME: 001
497 UNKNOWN  V    C        03:09:01:12 03:09:04:07 01:45:53:21 01:45:56:16
* FROM CLIP NAME: 001
498 UNKNOWN  V    C        03:09:04:07 03:09:13:02 01:45:56:16 01:46:05:11
* FROM CLIP NAME: 001
499 UNKNOWN  V    C        03:09:13:02 03:09:36:14 01:46:05:11 01:46:28:23
* FROM CLIP NAME: 001
500 UNKNOWN  V    C        03:09:36:14 03:09:52:11 01:46:28:23 01:46:44:20
* FROM CLIP NAME: 001
501 UNKNOWN  V    C        03:09:52:11 03:09:52:12 01:46:44:20 01:46:44:21
* FROM CLIP NAME: 001
502 UNKNOWN  V    C        03:09:52:12 03:10:03:23 01:46:44:21 01:46:56:07
* FROM CLIP NAME: 001
503 UNKNOWN  V    C        03:10:03:23 03:10:03:24 01:46:56:07 01:46:56:08
* FROM CLIP NAME: 001
504 UNKNOWN  V    C        03:10:03:24 03:10:23:23 01:46:56:08 01:47:16:07
* FROM CLIP NAME: 001
505 UNKNOWN  V    C        03:10:23:23 03:10:33:12 01:47:16:07 01:47:25:21
* FROM CLIP NAME: 001
506 UNKNOWN  V    C        03:10:33:12 03:10:34:13 01:47:25:21 01:47:26:22
* FROM CLIP NAME: 001
507 UNKNOWN  V    C        03:10:34:13 03:10:43:15 01:47:26:22 01:47:35:24
* FROM CLIP NAME: 001
508 UNKNOWN  V    C        03:10:43:15 03:10:43:16 01:47:35:24 01:47:36:00
* FROM CLIP NAME: 001
509 UNKNOWN  V    C        03:10:43:16 03:10:56:16 01:47:36:00 01:47:49:00
* FROM CLIP NAME: 001
510 UNKNOWN  V    C        03:10:56:16 03:10:56:17 01:47:49:00 01:47:49:01
* FROM CLIP NAME: 001
511 UNKNOWN  V    C        03:10:56:17 03:11:06:01 01:47:49:01 01:47:58:10
* FROM CLIP NAME: 001
512 UNKNOWN  V    C        03:11:06:01 03:11:09:16 01:47:58:10 01:48:02:00
* FROM CLIP NAME: 001
513 UNKNOWN  V    C        03:11:09:16 03:11:12:01 01:48:02:00 01:48:04:10
* FROM CLIP NAME: 001
514 UNKNOWN  V    C        03:11:12:01 03:11:28:20 01:48:04:10 01:48:21:04
* FROM CLIP NAME: 001
515 UNKNOWN  V    C        03:11:28:20 03:11:37:05 01:48:21:04 01:48:29:14
* FROM CLIP NAME: 001
516 UNKNOWN  V    C        03:11:37:05 03:11:43:19 01:48:29:14 01:48:36:03
* FROM CLIP NAME: 001
517 UNKNOWN  V    C        03:11:43:19 03:11:46:20 01:48:36:03 01:48:39:04
* FROM CLIP NAME: 001
518 UNKNOWN  V    C        03:11:46:20 03:11:50:18 01:48:39:04 01:48:43:02
* FROM CLIP NAME: 001
519 UNKNOWN  V    C        03:11:50:18 03:11:57:19 01:48:43:02 01:48:50:03
* FROM CLIP NAME: 001
520 UNKNOWN  V    C        03:11:57:19 03:12:07:15 01:48:50:03 01:48:59:24
* FROM CLIP NAME: 001
521 UNKNOWN  V    C        03:12:07:15 03:12:10:23 01:48:59:24 01:49:03:07
* FROM CLIP NAME: 001
522 UNKNOWN  V    C        03:12:10:23 03:12:11:00 01:49:03:07 01:49:03:09
* FROM CLIP NAME: 001
523 UNKNOWN  V    C        03:12:11:00 03:12:15:10 01:49:03:09 01:49:07:19
* FROM CLIP NAME: 001
524 UNKNOWN  V    C        03:12:15:10 03:12:15:15 01:49:07:19 01:49:07:24
* FROM CLIP NAME: 001
525 UNKNOWN  V    C        03:12:15:15 03:12:21:09 01:49:07:24 01:49:13:18
* FROM CLIP NAME: 001
526 UNKNOWN  V    C        03:12:21:09 03:12:50:15 01:49:13:18 01:49:42:24
* FROM CLIP NAME: 001
527 UNKNOWN  V    C        03:12:50:15 03:12:59:21 01:49:42:24 01:49:52:05
* FROM CLIP NAME: 001
528 UNKNOWN  V    C        03:12:59:21 03:13:22:10 01:49:52:05 01:50:14:19
* FROM CLIP NAME: 001
529 UNKNOWN  V    C        03:13:22:10 03:13:22:11 01:50:14:19 01:50:14:20
* FROM CLIP NAME: 001
530 UNKNOWN  V    C        03:13:22:11 03:13:29:09 01:50:14:20 01:50:21:18
* FROM CLIP NAME: 001
531 UNKNOWN  V    C        03:13:29:09 03:13:32:02 01:50:21:18 01:50:24:11
* FROM CLIP NAME: 001
532 UNKNOWN  V    C        03:13:32:02 03:13:40:02 01:50:24:11 01:50:32:11
* FROM CLIP NAME: 001
533 UNKNOWN  V    C        03:13:40:02 03:13:50:13 01:50:32:11 01:50:42:22
* FROM CLIP NAME: 001
534 UNKNOWN  V    C        03:13:50:13 03:14:17:24 01:50:42:22 01:51:10:08
* FROM CLIP NAME: 001
535 UNKNOWN  V    C        03:14:17:24 03:14:32:12 01:51:10:08 01:51:24:21
* FROM CLIP NAME: 001
536 UNKNOWN  V    C        03:14:32:12 03:14:36:02 01:51:24:21 01:51:28:11
* FROM CLIP NAME: 001
537 UNKNOWN  V    C        03:14:36:02 03:14:49:00 01:51:28:11 01:51:41:09
* FROM CLIP NAME: 001
538 UNKNOWN  V    C        03:14:49:00 03:14:52:18 01:51:41:09 01:51:45:02
* FROM CLIP NAME: 001
539 UNKNOWN  V    C        03:14:52:18 03:14:56:00 01:51:45:02 01:51:48:09
* FROM CLIP NAME: 001
540 UNKNOWN  V    C        03:14:56:00 03:15:00:11 01:51:48:09 01:51:52:20
* FROM CLIP NAME: 001
541 UNKNOWN  V    C        03:15:00:11 03:15:00:12 01:51:52:20 01:51:52:21
* FROM CLIP NAME: 001
542 UNKNOWN  V    C        03:15:00:12 03:15:04:07 01:51:52:21 01:51:56:16
* FROM CLIP NAME: 001
543 UNKNOWN  V    C        03:15:04:07 03:15:08:22 01:51:56:16 01:52:01:06
* FROM CLIP NAME: 001
544 UNKNOWN  V    C        03:15:08:22 03:15:18:11 01:52:01:06 01:52:10:20
* FROM CLIP NAME: 001
545 UNKNOWN  V    C        03:15:18:11 03:15:25:17 01:52:10:20 01:52:18:01
* FROM CLIP NAME: 001
546 UNKNOWN  V    C        03:15:25:17 03:15:32:22 01:52:18:01 01:52:25:06
* FROM CLIP NAME: 001
547 UNKNOWN  V    C        03:15:32:22 03:15:41:05 01:52:25:06 01:52:33:14
* FROM CLIP NAME: 001
548 UNKNOWN  V    C        03:15:41:05 03:15:55:23 01:52:33:14 01:52:48:07
* FROM CLIP NAME: 001
549 UNKNOWN  V    C        03:15:55:23 03:16:05:20 01:52:48:07 01:52:58:04
* FROM CLIP NAME: 001
550 UNKNOWN  V    C        03:16:05:20 03:16:10:23 01:52:58:04 01:53:03:07
* FROM CLIP NAME: 001
551 UNKNOWN  V    C        03:16:10:23 03:16:14:23 01:53:03:07 01:53:07:07
* FROM CLIP NAME: 001
552 UNKNOWN  V    C        03:16:14:23 03:16:14:23 01:53:07:07 01:53:07:07
552 UNKNOWN  V    D    072 03:16:14:23 03:16:22:20 01:53:07:07 01:53:15:04
* FROM CLIP NAME: 001
* TO CLIP NAME: 001
553 UNKNOWN  V    C        03:16:22:20 03:16:27:19 01:53:15:04 01:53:20:03
* FROM CLIP NAME: 001
554 UNKNOWN  V    C        03:16:27:19 03:16:31:04 01:53:20:03 01:53:23:13
* FROM CLIP NAME: 001
555 UNKNOWN  V    C        03:16:31:04 03:16:33:14 01:53:23:13 01:53:25:23
* FROM CLIP NAME: 001
556 UNKNOWN  V    C        03:16:33:14 03:16:38:22 01:53:25:23 01:53:31:06
* FROM CLIP NAME: 001
557 UNKNOWN  V    C        03:16:38:22 03:16:49:12 01:53:31:06 01:53:41:21
* FROM CLIP NAME: 001
558 UNKNOWN  V    C        03:16:49:12 03:16:57:17 01:53:41:21 01:53:50:01
* FROM CLIP NAME: 001
559 UNKNOWN  V    C        03:16:57:17 03:17:01:08 01:53:50:01 01:53:53:17
* FROM CLIP NAME: 001
560 UNKNOWN  V    C        03:17:01:08 03:17:03:04 01:53:53:17 01:53:55:13
* FROM CLIP NAME: 001
561 UNKNOWN  V    C        03:17:03:04 03:17:05:14 01:53:55:13 01:53:57:23
* FROM CLIP NAME: 001
562 UNKNOWN  V    C        04:00:00:00 04:00:04:11 01:53:57:23 01:54:02:09
* FROM CLIP NAME: 001
563 UNKNOWN  V    C        04:00:04:11 04:00:25:04 01:54:02:09 01:54:23:02
* FROM CLIP NAME: 001
564 UNKNOWN  V    C        04:00:25:04 04:00:28:14 01:54:23:02 01:54:26:12
* FROM CLIP NAME: 001
565 UNKNOWN  V    C        04:00:28:14 04:00:32:10 01:54:26:12 01:54:30:08
* FROM CLIP NAME: 001
566 UNKNOWN  V    C        04:00:32:10 04:00:35:13 01:54:30:08 01:54:33:11
* FROM CLIP NAME: 001
567 UNKNOWN  V    C        04:00:35:13 04:00:39:18 01:54:33:11 01:54:37:16
* FROM CLIP NAME: 001
568 UNKNOWN  V    C        04:00:39:18 04:00:43:00 01:54:37:16 01:54:40:23
* FROM CLIP NAME: 001
569 UNKNOWN  V    C        04:00:43:00 04:00:48:12 01:54:40:23 01:54:46:10
* FROM CLIP NAME: 001
570 UNKNOWN  V    C        04:00:48:12 04:00:50:24 01:54:46:10 01:54:48:22
* FROM CLIP NAME: 001
571 UNKNOWN  V    C        04:00:50:24 04:00:56:12 01:54:48:22 01:54:54:10
* FROM CLIP NAME: 001
572 UNKNOWN  V    C        04:00:56:12 04:01:02:18 01:54:54:10 01:55:00:16
* FROM CLIP NAME: 001
573 UNKNOWN  V    C        04:01:02:18 04:01:08:07 01:55:00:16 01:55:06:05
* FROM CLIP NAME: 001
574 UNKNOWN  V    C        04:01:08:07 04:01:20:19 01:55:06:05 01:55:18:17
* FROM CLIP NAME: 001
575 UNKNOWN  V    C        04:01:20:19 04:01:28:16 01:55:18:17 01:55:26:14
* FROM CLIP NAME: 001
576 UNKNOWN  V    C        04:01:28:16 04:01:42:22 01:55:26:14 01:55:40:20
* FROM CLIP NAME: 001
577 UNKNOWN  V    C        04:01:42:22 04:01:42:22 01:55:40:20 01:55:40:20
577 UNKNOWN  V    D    096 04:01:42:22 04:01:50:17 01:55:40:20 01:55:48:15
* FROM CLIP NAME: 001
* TO CLIP NAME: 001
578 UNKNOWN  V    C        04:01:50:17 04:01:54:06 01:55:48:15 01:55:52:04
* FROM CLIP NAME: 001
579 UNKNOWN  V    C        04:01:54:06 04:02:10:18 01:55:52:04 01:56:08:16
* FROM CLIP NAME: 001
580 UNKNOWN  V    C        04:02:10:18 04:02:13:15 01:56:08:16 01:56:11:13
* FROM CLIP NAME: 001
581 UNKNOWN  V    C        04:02:13:15 04:02:22:16 01:56:11:13 01:56:20:14
* FROM CLIP NAME: 001
582 UNKNOWN  V    C        04:02:22:16 04:02:29:10 01:56:20:14 01:56:27:08
* FROM CLIP NAME: 001
583 UNKNOWN  V    C        04:02:29:10 04:02:29:11 01:56:27:08 01:56:27:09
* FROM CLIP NAME: 001
584 UNKNOWN  V    C        04:02:29:11 04:02:33:01 01:56:27:09 01:56:30:24
* FROM CLIP NAME: 001
585 UNKNOWN  V    C        04:02:33:01 04:02:33:03 01:56:30:24 01:56:31:01
* FROM CLIP NAME: 001
586 UNKNOWN  V    C        04:02:33:03 04:02:33:05 01:56:31:01 01:56:31:03
* FROM CLIP NAME: 001
587 UNKNOWN  V    C        04:02:33:05 04:02:33:05 01:56:31:03 01:56:31:03
587 UNKNOWN  V    D    013 04:02:33:05 04:02:33:18 01:56:31:03 01:56:31:16
* FROM CLIP NAME: 001
* TO CLIP NAME: 001
588 UNKNOWN  V    C        04:02:33:18 04:02:38:04 01:56:31:16 01:56:36:02
* FROM CLIP NAME: 001
589 UNKNOWN  V    C        04:02:38:04 04:02:46:02 01:56:36:02 01:56:44:00
* FROM CLIP NAME: 001
590 UNKNOWN  V    C        04:02:46:02 04:02:59:00 01:56:44:00 01:56:56:23
* FROM CLIP NAME: 001
591 UNKNOWN  V    C        04:02:59:00 04:03:04:06 01:56:56:23 01:57:02:04
* FROM CLIP NAME: 001
592 UNKNOWN  V    C        04:03:04:06 04:03:23:03 01:57:02:04 01:57:21:01
* FROM CLIP NAME: 001
593 UNKNOWN  V    C        04:03:23:03 04:04:45:14 01:57:21:01 01:58:43:12
* FROM CLIP NAME: 001
594 UNKNOWN  V    C        04:04:45:14 04:04:52:06 01:58:43:12 01:58:50:04
* FROM CLIP NAME: 001
595 UNKNOWN  V    C        04:04:52:06 04:05:05:12 01:58:50:04 01:59:03:10
* FROM CLIP NAME: 001
596 UNKNOWN  V    C        04:05:05:12 04:05:12:18 01:59:03:10 01:59:10:16
* FROM CLIP NAME: 001
597 UNKNOWN  V    C        04:05:12:18 04:05:14:21 01:59:10:16 01:59:12:19
* FROM CLIP NAME: 001
598 UNKNOWN  V    C        04:05:14:21 04:05:16:04 01:59:12:19 01:59:14:02
* FROM CLIP NAME: 001
599 UNKNOWN  V    C        04:05:16:04 04:05:17:21 01:59:14:02 01:59:15:19
* FROM CLIP NAME: 001
600 UNKNOWN  V    C        04:05:17:21 04:05:27:16 01:59:15:19 01:59:25:14
* FROM CLIP NAME: 001
601 UNKNOWN  V    C        04:05:27:16 04:05:48:09 01:59:25:14 01:59:46:07
* FROM CLIP NAME: 001
602 UNKNOWN  V    C        04:05:48:09 04:05:48:09 01:59:46:07 01:59:46:07
602 UNKNOWN  V    D    036 04:05:48:09 04:05:49:24 01:59:46:07 01:59:47:22
* FROM CLIP NAME: 001
* TO CLIP NAME: 001
603 UNKNOWN  V    C        04:05:49:24 04:05:50:00 01:59:47:22 01:59:47:23
* FROM CLIP NAME: 001
604 UNKNOWN  V    C        04:05:50:00 04:05:50:00 01:59:47:23 01:59:47:23
604 UNKNOWN  V    D    032 04:05:50:00 04:05:54:15 01:59:47:23 01:59:52:13
* FROM CLIP NAME: 001
* TO CLIP NAME: 001
605 UNKNOWN  V    C        04:05:54:15 04:06:13:02 01:59:52:13 02:00:11:00
* FROM CLIP NAME: 001
606 UNKNOWN  V    C        04:06:13:02 04:06:49:13 02:00:11:00 02:00:47:11
* FROM CLIP NAME: 001
607 UNKNOWN  V    C        04:06:49:13 04:06:55:14 02:00:47:11 02:00:53:12
* FROM CLIP NAME: 001
608 UNKNOWN  V    C        04:06:55:14 04:06:57:13 02:00:53:12 02:00:55:11
* FROM CLIP NAME: 001
609 UNKNOWN  V    C        04:06:57:13 04:07:02:05 02:00:55:11 02:01:00:03
* FROM CLIP NAME: 001
610 UNKNOWN  V    C        04:07:02:05 04:07:07:11 02:01:00:03 02:01:05:09
* FROM CLIP NAME: 001
611 UNKNOWN  V    C        04:07:07:11 04:07:11:05 02:01:05:09 02:01:09:03
* FROM CLIP NAME: 001
612 UNKNOWN  V    C        04:07:11:05 04:07:16:08 02:01:09:03 02:01:14:06
* FROM CLIP NAME: 001
613 UNKNOWN  V    C        04:07:16:08 04:07:24:14 02:01:14:06 02:01:22:12
* FROM CLIP NAME: 001
614 UNKNOWN  V    C        04:07:24:14 04:07:27:20 02:01:22:12 02:01:25:18
* FROM CLIP NAME: 001
615 UNKNOWN  V    C        04:07:27:20 04:07:27:21 02:01:25:18 02:01:25:19
* FROM CLIP NAME: 001
616 UNKNOWN  V    C        04:07:27:21 04:07:29:07 02:01:25:19 02:01:27:05
* FROM CLIP NAME: 001
617 UNKNOWN  V    C        04:07:29:07 04:07:31:19 02:01:27:05 02:01:29:17
* FROM CLIP NAME: 001
618 UNKNOWN  V    C        04:07:31:19 04:07:33:20 02:01:29:17 02:01:31:18
* FROM CLIP NAME: 001
619 UNKNOWN  V    C        04:07:33:20 04:07:41:05 02:01:31:18 02:01:39:03
* FROM CLIP NAME: 001
620 UNKNOWN  V    C        04:07:41:05 04:07:45:24 02:01:39:03 02:01:43:22
* FROM CLIP NAME: 001
621 UNKNOWN  V    C        04:07:45:24 04:07:49:22 02:01:43:22 02:01:47:20
* FROM CLIP NAME: 001
622 UNKNOWN  V    C        04:07:49:22 04:07:59:03 02:01:47:20 02:01:57:01
* FROM CLIP NAME: 001
623 UNKNOWN  V    C        04:07:59:03 04:07:59:04 02:01:57:01 02:01:57:02
* FROM CLIP NAME: 001
624 UNKNOWN  V    C        04:07:59:04 04:08:02:11 02:01:57:02 02:02:00:09
* FROM CLIP NAME: 001
625 UNKNOWN  V    C        04:08:02:11 04:08:04:16 02:02:00:09 02:02:02:14
* FROM CLIP NAME: 001
626 UNKNOWN  V    C        04:08:04:16 04:08:08:24 02:02:02:14 02:02:06:22
* FROM CLIP NAME: 001
627 UNKNOWN  V    C        04:08:08:24 04:08:20:19 02:02:06:22 02:02:18:17
* FROM CLIP NAME: 001
628 UNKNOWN  V    C        04:08:20:19 04:08:45:24 02:02:18:17 02:02:43:22
* FROM CLIP NAME: 001
629 UNKNOWN  V    C        04:08:45:24 04:08:54:14 02:02:43:22 02:02:52:12
* FROM CLIP NAME: 001
630 UNKNOWN  V    C        04:08:54:14 04:08:57:06 02:02:52:12 02:02:55:04
* FROM CLIP NAME: 001
631 UNKNOWN  V    C        04:08:57:06 04:09:12:03 02:02:55:04 02:03:10:01
* FROM CLIP NAME: 001
632 UNKNOWN  V    C        04:09:12:03 04:09:28:23 02:03:10:01 02:03:26:21
* FROM CLIP NAME: 001
633 UNKNOWN  V    C        04:09:28:23 04:09:28:23 02:03:26:21 02:03:26:21
633 UNKNOWN  V    D    060 04:09:28:23 04:09:35:08 02:03:26:21 02:03:33:06
* FROM CLIP NAME: 001
* TO CLIP NAME: 001
634 UNKNOWN  V    C        04:09:35:08 04:09:40:03 02:03:33:06 02:03:38:01
* FROM CLIP NAME: 001
635 UNKNOWN  V    C        04:09:40:03 04:09:43:10 02:03:38:01 02:03:41:08
* FROM CLIP NAME: 001
636 UNKNOWN  V    C        04:09:43:10 04:09:52:04 02:03:41:08 02:03:50:02
* FROM CLIP NAME: 001
637 UNKNOWN  V    C        04:09:52:04 04:09:53:23 02:03:50:02 02:03:51:21
* FROM CLIP NAME: 001
638 UNKNOWN  V    C        04:09:53:23 04:09:55:13 02:03:51:21 02:03:53:11
* FROM CLIP NAME: 001
639 UNKNOWN  V    C        04:09:55:13 04:09:57:00 02:03:53:11 02:03:54:23
* FROM CLIP NAME: 001
640 UNKNOWN  V    C        04:09:57:00 04:09:58:13 02:03:54:23 02:03:56:11
* FROM CLIP NAME: 001
641 UNKNOWN  V    C        04:09:58:13 04:10:01:04 02:03:56:11 02:03:59:02
* FROM CLIP NAME: 001
642 UNKNOWN  V    C        04:10:01:04 04:10:04:22 02:03:59:02 02:04:02:20
* FROM CLIP NAME: 001
643 UNKNOWN  V    C        04:10:04:22 04:10:09:11 02:04:02:20 02:04:07:09
* FROM CLIP NAME: 001
644 UNKNOWN  V    C        04:10:09:11 04:10:27:17 02:04:07:09 02:04:25:15
* FROM CLIP NAME: 001
645 UNKNOWN  V    C        04:10:27:17 04:10:36:14 02:04:25:15 02:04:34:12
* FROM CLIP NAME: 001
646 UNKNOWN  V    C        04:10:36:14 04:10:44:16 02:04:34:12 02:04:42:14
* FROM CLIP NAME: 001
647 UNKNOWN  V    C        04:10:44:16 04:10:49:11 02:04:42:14 02:04:47:09
* FROM CLIP NAME: 001
648 UNKNOWN  V    C        04:10:49:11 04:10:53:00 02:04:47:09 02:04:50:23
* FROM CLIP NAME: 001
649 UNKNOWN  V    C        04:10:53:00 04:10:57:02 02:04:50:23 02:04:55:00
* FROM CLIP NAME: 001
650 UNKNOWN  V    C        04:10:57:02 04:10:59:15 02:04:55:00 02:04:57:13
* FROM CLIP NAME: 001
651 UNKNOWN  V    C        04:10:59:15 04:11:07:18 02:04:57:13 02:05:05:16
* FROM CLIP NAME: 001
652 UNKNOWN  V    C        04:11:07:18 04:11:11:19 02:05:05:16 02:05:09:17
* FROM CLIP NAME: 001
653 UNKNOWN  V    C        04:11:11:19 04:11:15:21 02:05:09:17 02:05:13:19
* FROM CLIP NAME: 001
654 UNKNOWN  V    C        04:11:15:21 04:11:26:04 02:05:13:19 02:05:24:02
* FROM CLIP NAME: 001
655 UNKNOWN  V    C        04:11:26:04 04:11:31:13 02:05:24:02 02:05:29:11
* FROM CLIP NAME: 001
656 UNKNOWN  V    C        04:11:31:13 04:11:37:07 02:05:29:11 02:05:35:05
* FROM CLIP NAME: 001
657 UNKNOWN  V    C        04:11:37:07 04:11:42:03 02:05:35:05 02:05:40:01
* FROM CLIP NAME: 001
658 UNKNOWN  V    C        04:11:42:03 04:11:44:14 02:05:40:01 02:05:42:12
* FROM CLIP NAME: 001
659 UNKNOWN  V    C        04:11:44:14 04:11:55:07 02:05:42:12 02:05:53:05
* FROM CLIP NAME: 001
660 UNKNOWN  V    C        04:11:55:07 04:12:04:22 02:05:53:05 02:06:02:20
* FROM CLIP NAME: 001
661 UNKNOWN  V    C        04:12:04:22 04:12:23:05 02:06:02:20 02:06:21:03
* FROM CLIP NAME: 001
662 UNKNOWN  V    C        04:12:23:05 04:12:31:07 02:06:21:03 02:06:29:05
* FROM CLIP NAME: 001
663 UNKNOWN  V    C        04:12:31:07 04:12:42:02 02:06:29:05 02:06:40:00
* FROM CLIP NAME: 001
664 UNKNOWN  V    C        04:12:42:02 04:12:42:02 02:06:40:00 02:06:40:00
664 UNKNOWN  V    D    058 04:12:42:02 04:12:50:16 02:06:40:00 02:06:48:14
* FROM CLIP NAME: 001
* TO CLIP NAME: 001
665 UNKNOWN  V    C        04:12:50:16 04:13:23:05 02:06:48:14 02:07:21:03
* FROM CLIP NAME: 001
666 UNKNOWN  V    C        04:13:23:05 04:13:23:05 02:07:21:03 02:07:21:03
666 UNKNOWN  V    D    080 04:13:23:05 04:14:01:24 02:07:21:03 02:07:59:22
* FROM CLIP NAME: 001
* TO CLIP NAME: 001
667 UNKNOWN  V    C        04:14:01:24 04:14:09:14 02:07:59:22 02:08:07:12
* FROM CLIP NAME: 001
668 UNKNOWN  V    C        04:14:09:14 04:14:15:09 02:08:07:12 02:08:13:07
* FROM CLIP NAME: 001
669 UNKNOWN  V    C        04:14:15:09 04:14:19:15 02:08:13:07 02:08:17:13
* FROM CLIP NAME: 001
670 UNKNOWN  V    C        04:14:19:15 04:14:24:14 02:08:17:13 02:08:22:12
* FROM CLIP NAME: 001
671 UNKNOWN  V    C        04:14:24:14 04:14:28:06 02:08:22:12 02:08:26:04
* FROM CLIP NAME: 001
672 UNKNOWN  V    C        04:14:28:06 04:14:30:20 02:08:26:04 02:08:28:18
* FROM CLIP NAME: 001
673 UNKNOWN  V    C        04:14:30:20 04:14:37:03 02:08:28:18 02:08:35:01
* FROM CLIP NAME: 001
674 UNKNOWN  V    C        04:14:37:03 04:14:37:03 02:08:35:01 02:08:35:01
674 UNKNOWN  V    D    054 04:14:37:03 04:14:55:23 02:08:35:01 02:08:53:21
* FROM CLIP NAME: 001
* TO CLIP NAME: 001
675 UNKNOWN  V    C        04:14:55:23 04:15:00:00 02:08:53:21 02:08:57:23
* FROM CLIP NAME: 001
676 UNKNOWN  V    C        04:15:00:00 04:15:05:14 02:08:57:23 02:09:03:12
* FROM CLIP NAME: 001
677 UNKNOWN  V    C        04:15:05:14 04:15:14:07 02:09:03:12 02:09:12:05
* FROM CLIP NAME: 001
678 UNKNOWN  V    C        04:15:14:07 04:15:14:08 02:09:12:05 02:09:12:06
* FROM CLIP NAME: 001
679 UNKNOWN  V    C        04:15:14:08 04:15:19:09 02:09:12:06 02:09:17:07
* FROM CLIP NAME: 001
680 UNKNOWN  V    C        04:15:19:09 04:15:19:10 02:09:17:07 02:09:17:08
* FROM CLIP NAME: 001
681 UNKNOWN  V    C        04:15:19:10 04:15:25:15 02:09:17:08 02:09:23:13
* FROM CLIP NAME: 001
682 UNKNOWN  V    C        04:15:25:15 04:15:34:02 02:09:23:13 02:09:32:00
* FROM CLIP NAME: 001
683 UNKNOWN  V    C        04:15:34:02 04:15:43:07 02:09:32:00 02:09:41:05
* FROM CLIP NAME: 001
684 UNKNOWN  V    C        04:15:43:07 04:15:49:01 02:09:41:05 02:09:46:24
* FROM CLIP NAME: 001
685 UNKNOWN  V    C        04:15:49:01 04:15:49:01 02:09:46:24 02:09:46:24
685 UNKNOWN  V    D    018 04:15:49:01 04:15:49:21 02:09:46:24 02:09:47:19
* FROM CLIP NAME: 001
* TO CLIP NAME: 001
686 UNKNOWN  V    C        04:15:49:21 04:15:49:22 02:09:47:19 02:09:47:20
* FROM CLIP NAME: 001
687 UNKNOWN  V    C        04:15:49:22 04:15:49:22 02:09:47:20 02:09:47:20
687 UNKNOWN  V    D    015 04:15:49:22 04:15:55:02 02:09:47:20 02:09:53:00
* FROM CLIP NAME: 001
* TO CLIP NAME: 001
688 UNKNOWN  V    C        04:15:55:02 04:15:55:03 02:09:53:00 02:09:53:01
* FROM CLIP NAME: 001
689 UNKNOWN  V    C        04:15:55:03 04:16:09:15 02:09:53:01 02:10:07:13
* FROM CLIP NAME: 001
690 UNKNOWN  V    C        04:16:09:15 04:16:11:01 02:10:07:13 02:10:08:24
* FROM CLIP NAME: 001
691 UNKNOWN  V    C        04:16:11:01 04:16:13:04 02:10:08:24 02:10:11:02
* FROM CLIP NAME: 001
692 UNKNOWN  V    C        04:16:13:04 04:16:15:12 02:10:11:02 02:10:13:10
* FROM CLIP NAME: 001
693 UNKNOWN  V    C        04:16:15:12 04:16:22:14 02:10:13:10 02:10:20:12
* FROM CLIP NAME: 001
694 UNKNOWN  V    C        04:16:22:14 04:16:27:10 02:10:20:12 02:10:25:08
* FROM CLIP NAME: 001
695 UNKNOWN  V    C        04:16:27:10 04:16:33:10 02:10:25:08 02:10:31:08
* FROM CLIP NAME: 001
696 UNKNOWN  V    C        04:16:33:10 04:16:36:12 02:10:31:08 02:10:34:10
* FROM CLIP NAME: 001
697 UNKNOWN  V    C        04:16:36:12 04:16:36:12 02:10:34:10 02:10:34:10
697 UNKNOWN  V    D    022 04:16:36:12 04:16:44:03 02:10:34:10 02:10:42:01
* FROM CLIP NAME: 001
* TO CLIP NAME: 001
698 UNKNOWN  V    C        04:16:44:03 04:16:46:18 02:10:42:01 02:10:44:16
* FROM CLIP NAME: 001
699 UNKNOWN  V    C        04:16:46:18 04:16:51:01 02:10:44:16 02:10:48:24
* FROM CLIP NAME: 001
700 UNKNOWN  V    C        04:16:51:01 04:16:51:01 02:10:48:24 02:10:48:24
700 UNKNOWN  V    D    019 04:16:51:01 04:16:51:21 02:10:48:24 02:10:49:19
* FROM CLIP NAME: 001
* TO CLIP NAME: 001
701 UNKNOWN  V    C        04:16:51:21 04:16:51:21 02:10:49:19 02:10:49:19
701 UNKNOWN  V    D    019 04:16:51:21 04:17:11:18 02:10:49:19 02:11:09:16
* FROM CLIP NAME: 001
* TO CLIP NAME: 001
702 UNKNOWN  V    C        05:00:00:00 05:00:24:15 02:11:09:16 02:11:34:06
* FROM CLIP NAME: 001
703 UNKNOWN  V    C        05:00:24:15 05:00:48:01 02:11:34:06 02:11:57:17
* FROM CLIP NAME: 001
704 UNKNOWN  V    C        05:00:48:01 05:00:48:01 02:11:57:17 02:11:57:17
704 UNKNOWN  V    D    046 05:00:48:01 05:00:56:22 02:11:57:17 02:12:06:13
* FROM CLIP NAME: 001
* TO CLIP NAME: 001
705 UNKNOWN  V    C        05:00:56:22 05:01:03:12 02:12:06:13 02:12:13:03
* FROM CLIP NAME: 001
706 UNKNOWN  V    C        05:01:03:12 05:01:12:14 02:12:13:03 02:12:22:05
* FROM CLIP NAME: 001
707 UNKNOWN  V    C        05:01:12:14 05:01:12:15 02:12:22:05 02:12:22:06
* FROM CLIP NAME: 001
708 UNKNOWN  V    C        05:01:12:15 05:01:18:22 02:12:22:06 02:12:28:13
* FROM CLIP NAME: 001
709 UNKNOWN  V    C        05:01:18:22 05:01:21:07 02:12:28:13 02:12:30:23
* FROM CLIP NAME: 001
710 UNKNOWN  V    C        05:01:21:07 05:01:33:11 02:12:30:23 02:12:43:02
* FROM CLIP NAME: 001
711 UNKNOWN  V    C        05:01:33:11 05:01:39:21 02:12:43:02 02:12:49:12
* FROM CLIP NAME: 001
712 UNKNOWN  V    C        05:01:39:21 05:01:53:20 02:12:49:12 02:13:03:11
* FROM CLIP NAME: 001
713 UNKNOWN  V    C        05:01:53:20 05:01:57:19 02:13:03:11 02:13:07:10
* FROM CLIP NAME: 001
714 UNKNOWN  V    C        05:01:57:19 05:02:09:24 02:13:07:10 02:13:19:15
* FROM CLIP NAME: 001
715 UNKNOWN  V    C        05:02:09:24 05:02:12:00 02:13:19:15 02:13:21:16
* FROM CLIP NAME: 001
716 UNKNOWN  V    C        05:02:12:00 05:02:29:10 02:13:21:16 02:13:39:01
* FROM CLIP NAME: 001
717 UNKNOWN  V    C        05:02:29:10 05:02:34:14 02:13:39:01 02:13:44:05
* FROM CLIP NAME: 001
718 UNKNOWN  V    C        05:02:34:14 05:02:46:01 02:13:44:05 02:13:55:17
* FROM CLIP NAME: 001
719 UNKNOWN  V    C        05:02:46:01 05:02:48:22 02:13:55:17 02:13:58:13
* FROM CLIP NAME: 001
720 UNKNOWN  V    C        05:02:48:22 05:02:51:24 02:13:58:13 02:14:01:15
* FROM CLIP NAME: 001
721 UNKNOWN  V    C        05:02:51:24 05:02:58:05 02:14:01:15 02:14:07:21
* FROM CLIP NAME: 001
722 UNKNOWN  V    C        05:02:58:05 05:03:06:00 02:14:07:21 02:14:15:16
* FROM CLIP NAME: 001
723 UNKNOWN  V    C        05:03:06:00 05:03:12:07 02:14:15:16 02:14:21:23
* FROM CLIP NAME: 001
724 UNKNOWN  V    C        05:03:12:07 05:03:26:13 02:14:21:23 02:14:36:04
* FROM CLIP NAME: 001
725 UNKNOWN  V    C        05:03:26:13 05:03:29:24 02:14:36:04 02:14:39:15
* FROM CLIP NAME: 001
726 UNKNOWN  V    C        05:03:29:24 05:03:29:24 02:14:39:15 02:14:39:15
726 UNKNOWN  V    D    061 05:03:29:24 05:03:37:23 02:14:39:15 02:14:47:14
* FROM CLIP NAME: 001
* TO CLIP NAME: 001
727 UNKNOWN  V    C        05:03:37:23 05:03:37:23 02:14:47:14 02:14:47:14
727 UNKNOWN  V    D    066 05:03:37:23 05:03:43:09 02:14:47:14 02:14:53:00
* FROM CLIP NAME: 001
* TO CLIP NAME: 001
728 UNKNOWN  V    C        05:03:43:09 05:03:53:07 02:14:53:00 02:15:02:23
* FROM CLIP NAME: 001
729 UNKNOWN  V    C        05:03:53:07 05:04:03:18 02:15:02:23 02:15:13:09
* FROM CLIP NAME: 001
730 UNKNOWN  V    C        05:04:03:18 05:04:06:14 02:15:13:09 02:15:16:05
* FROM CLIP NAME: 001
731 UNKNOWN  V    C        05:04:06:14 05:04:14:00 02:15:16:05 02:15:23:16
* FROM CLIP NAME: 001
732 UNKNOWN  V    C        05:04:14:00 05:04:17:12 02:15:23:16 02:15:27:03
* FROM CLIP NAME: 001
733 UNKNOWN  V    C        05:04:17:12 05:04:18:21 02:15:27:03 02:15:28:12
* FROM CLIP NAME: 001
734 UNKNOWN  V    C        05:04:18:21 05:04:25:09 02:15:28:12 02:15:35:00
* FROM CLIP NAME: 001
735 UNKNOWN  V    C        05:04:25:09 05:04:33:02 02:15:35:00 02:15:42:18
* FROM CLIP NAME: 001
736 UNKNOWN  V    C        05:04:33:02 05:04:37:22 02:15:42:18 02:15:47:13
* FROM CLIP NAME: 001
737 UNKNOWN  V    C        05:04:37:22 05:04:42:03 02:15:47:13 02:15:51:19
* FROM CLIP NAME: 001
738 UNKNOWN  V    C        05:04:42:03 05:04:54:24 02:15:51:19 02:16:04:15
* FROM CLIP NAME: 001
739 UNKNOWN  V    C        05:04:54:24 05:05:07:24 02:16:04:15 02:16:17:15
* FROM CLIP NAME: 001
740 UNKNOWN  V    C        05:05:07:24 05:05:24:12 02:16:17:15 02:16:34:03
* FROM CLIP NAME: 001
741 UNKNOWN  V    C        05:05:24:12 05:05:24:12 02:16:34:03 02:16:34:03
741 UNKNOWN  V    D    034 05:05:24:12 05:05:30:12 02:16:34:03 02:16:40:03
* FROM CLIP NAME: 001
* TO CLIP NAME: 001
742 UNKNOWN  V    C        05:05:30:12 05:05:36:00 02:16:40:03 02:16:45:16
* FROM CLIP NAME: 001
743 UNKNOWN  V    C        05:05:36:00 05:05:38:03 02:16:45:16 02:16:47:19
* FROM CLIP NAME: 001
744 UNKNOWN  V    C        05:05:38:03 05:05:38:03 02:16:47:19 02:16:47:19
744 UNKNOWN  V    D    040 05:05:38:03 05:05:43:17 02:16:47:19 02:16:53:08
* FROM CLIP NAME: 001
* TO CLIP NAME: 001
745 UNKNOWN  V    C        05:05:43:17 05:05:43:18 02:16:53:08 02:16:53:09
* FROM CLIP NAME: 001
746 UNKNOWN  V    C        05:05:43:18 05:05:52:10 02:16:53:09 02:17:02:01
* FROM CLIP NAME: 001
747 UNKNOWN  V    C        05:05:52:10 05:05:52:11 02:17:02:01 02:17:02:02
* FROM CLIP NAME: 001
748 UNKNOWN  V    C        05:05:52:11 05:05:55:10 02:17:02:02 02:17:05:01
* FROM CLIP NAME: 001
749 UNKNOWN  V    C        05:05:55:10 05:05:55:11 02:17:05:01 02:17:05:02
* FROM CLIP NAME: 001
750 UNKNOWN  V    C        05:05:55:11 05:06:01:22 02:17:05:02 02:17:11:13
* FROM CLIP NAME: 001
751 UNKNOWN  V    C        05:06:01:22 05:06:01:23 02:17:11:13 02:17:11:14
* FROM CLIP NAME: 001
752 UNKNOWN  V    C        05:06:01:23 05:06:04:06 02:17:11:14 02:17:13:22
* FROM CLIP NAME: 001
753 UNKNOWN  V    C        05:06:04:06 05:06:15:18 02:17:13:22 02:17:25:09
* FROM CLIP NAME: 001
754 UNKNOWN  V    C        05:06:15:18 05:06:15:18 02:17:25:09 02:17:25:09
754 UNKNOWN  V    D    029 05:06:15:18 05:06:23:21 02:17:25:09 02:17:33:12
* FROM CLIP NAME: 001
* TO CLIP NAME: 001
755 UNKNOWN  V    C        05:06:23:21 05:06:23:22 02:17:33:12 02:17:33:13
* FROM CLIP NAME: 001
756 UNKNOWN  V    C        05:06:23:22 05:06:30:23 02:17:33:13 02:17:40:14
* FROM CLIP NAME: 001
757 UNKNOWN  V    C        05:06:30:23 05:06:30:24 02:17:40:14 02:17:40:15
* FROM CLIP NAME: 001
758 UNKNOWN  V    C        05:06:30:24 05:06:54:06 02:17:40:15 02:18:03:22
* FROM CLIP NAME: 001
759 UNKNOWN  V    C        05:06:54:06 05:06:54:07 02:18:03:22 02:18:03:23
* FROM CLIP NAME: 001
760 UNKNOWN  V    C        05:06:54:07 05:07:09:23 02:18:03:23 02:18:19:14
* FROM CLIP NAME: 001
761 UNKNOWN  V    C        05:07:09:23 05:07:09:23 02:18:19:14 02:18:19:14
761 UNKNOWN  V    D    029 05:07:09:23 05:07:11:04 02:18:19:14 02:18:20:20
* FROM CLIP NAME: 001
* TO CLIP NAME: 001
762 UNKNOWN  V    C        05:07:11:04 05:07:11:06 02:18:20:20 02:18:20:22
* FROM CLIP NAME: 001
763 UNKNOWN  V    C        05:07:11:06 05:07:11:06 02:18:20:22 02:18:20:22
763 UNKNOWN  V    D    022 05:07:11:06 05:07:16:08 02:18:20:22 02:18:25:24
* FROM CLIP NAME: 001
* TO CLIP NAME: 001
764 UNKNOWN  V    C        05:07:16:08 05:07:41:22 02:18:25:24 02:18:51:13
* FROM CLIP NAME: 001
765 UNKNOWN  V    C        05:07:41:22 05:07:51:20 02:18:51:13 02:19:01:11
* FROM CLIP NAME: 001
766 UNKNOWN  V    C        05:07:51:20 05:07:56:24 02:19:01:11 02:19:06:15
* FROM CLIP NAME: 001
767 UNKNOWN  V    C        05:07:56:24 05:08:00:03 02:19:06:15 02:19:09:19
* FROM CLIP NAME: 001
768 UNKNOWN  V    C        05:08:00:03 05:08:06:09 02:19:09:19 02:19:16:00
* FROM CLIP NAME: 001
769 UNKNOWN  V    C        05:08:06:09 05:08:06:10 02:19:16:00 02:19:16:01
* FROM CLIP NAME: 001
770 UNKNOWN  V    C        05:08:06:10 05:08:09:21 02:19:16:01 02:19:19:12
* FROM CLIP NAME: 001
771 UNKNOWN  V    C        05:08:09:21 05:08:12:17 02:19:19:12 02:19:22:08
* FROM CLIP NAME: 001
772 UNKNOWN  V    C        05:08:12:17 05:08:15:05 02:19:22:08 02:19:24:21
* FROM CLIP NAME: 001
773 UNKNOWN  V    C        05:08:15:05 05:08:18:06 02:19:24:21 02:19:27:22
* FROM CLIP NAME: 001
774 UNKNOWN  V    C        05:08:18:06 05:08:18:07 02:19:27:22 02:19:27:23
* FROM CLIP NAME: 001
775 UNKNOWN  V    C        05:08:18:07 05:08:22:00 02:19:27:23 02:19:31:16
* FROM CLIP NAME: 001
776 UNKNOWN  V    C        05:08:22:00 05:08:29:12 02:19:31:16 02:19:39:03
* FROM CLIP NAME: 001
777 UNKNOWN  V    C        05:08:29:12 05:08:36:24 02:19:39:03 02:19:46:15
* FROM CLIP NAME: 001
778 UNKNOWN  V    C        05:08:36:24 05:08:59:12 02:19:46:15 02:20:09:03
* FROM CLIP NAME: 001
779 UNKNOWN  V    C        05:08:59:12 05:09:03:11 02:20:09:03 02:20:13:02
* FROM CLIP NAME: 001
780 UNKNOWN  V    C        05:09:03:11 05:09:10:18 02:20:13:02 02:20:20:09
* FROM CLIP NAME: 001
781 UNKNOWN  V    C        05:09:10:18 05:09:18:04 02:20:20:09 02:20:27:20
* FROM CLIP NAME: 001
782 UNKNOWN  V    C        05:09:18:04 05:09:31:16 02:20:27:20 02:20:41:07
* FROM CLIP NAME: 001
783 UNKNOWN  V    C        05:09:31:16 05:09:36:14 02:20:41:07 02:20:46:05
* FROM CLIP NAME: 001
784 UNKNOWN  V    C        05:09:36:14 05:09:50:21 02:20:46:05 02:21:00:12
* FROM CLIP NAME: 001
785 UNKNOWN  V    C        05:09:50:21 05:09:55:13 02:21:00:12 02:21:05:04
* FROM CLIP NAME: 001
786 UNKNOWN  V    C        05:09:55:13 05:09:59:19 02:21:05:04 02:21:09:10
* FROM CLIP NAME: 001
787 UNKNOWN  V    C        05:09:59:19 05:10:06:11 02:21:09:10 02:21:16:02
* FROM CLIP NAME: 001
788 UNKNOWN  V    C        05:10:06:11 05:10:06:12 02:21:16:02 02:21:16:03
* FROM CLIP NAME: 001
789 UNKNOWN  V    C        05:10:06:12 05:10:10:22 02:21:16:03 02:21:20:13
* FROM CLIP NAME: 001
790 UNKNOWN  V    C        05:10:10:22 05:10:12:13 02:21:20:13 02:21:22:04
* FROM CLIP NAME: 001
791 UNKNOWN  V    C        05:10:12:13 05:10:16:19 02:21:22:04 02:21:26:10
* FROM CLIP NAME: 001
792 UNKNOWN  V    C        05:10:16:19 05:10:20:09 02:21:26:10 02:21:30:00
* FROM CLIP NAME: 001
793 UNKNOWN  V    C        05:10:20:09 05:10:23:14 02:21:30:00 02:21:33:05
* FROM CLIP NAME: 001
794 UNKNOWN  V    C        05:10:23:14 05:10:31:03 02:21:33:05 02:21:40:19
* FROM CLIP NAME: 001
795 UNKNOWN  V    C        05:10:31:03 05:10:40:19 02:21:40:19 02:21:50:10
* FROM CLIP NAME: 001
796 UNKNOWN  V    C        05:10:40:19 05:10:40:19 02:21:50:10 02:21:50:10
796 UNKNOWN  V    D    021 05:10:40:19 05:10:41:16 02:21:50:10 02:21:51:07
* FROM CLIP NAME: 001
* TO CLIP NAME: 001
797 UNKNOWN  V    C        05:10:41:16 05:10:41:17 02:21:51:07 02:21:51:08
* FROM CLIP NAME: 001
798 UNKNOWN  V    C        05:10:41:17 05:10:42:13 02:21:51:08 02:21:52:04
* FROM CLIP NAME: 001
799 UNKNOWN  V    C        05:10:42:13 05:10:42:13 02:21:52:04 02:21:52:04
799 UNKNOWN  V    D    029 05:10:42:13 05:10:47:03 02:21:52:04 02:21:56:19
* FROM CLIP NAME: 001
* TO CLIP NAME: 001
800 UNKNOWN  V    C        05:10:47:03 05:10:47:07 02:21:56:19 02:21:56:23
* FROM CLIP NAME: 001
801 UNKNOWN  V    C        05:10:47:07 05:10:47:07 02:21:56:23 02:21:56:23
801 UNKNOWN  V    D    023 05:10:47:07 05:10:56:01 02:21:56:23 02:22:05:17
* FROM CLIP NAME: 001
* TO CLIP NAME: 001
802 UNKNOWN  V    C        05:10:56:01 05:10:56:01 02:22:05:17 02:22:05:17
802 UNKNOWN  V    D    021 05:10:56:01 05:10:57:01 02:22:05:17 02:22:06:17
* FROM CLIP NAME: 001
* TO CLIP NAME: 001
803 UNKNOWN  V    C        05:10:57:01 05:10:57:01 02:22:06:17 02:22:06:17
803 UNKNOWN  V    D    107 05:10:57:01 05:11:01:11 02:22:06:17 02:22:11:02
* FROM CLIP NAME: 001
* TO CLIP NAME: 001
804 UNKNOWN  V    C        05:11:01:11 05:11:01:11 02:22:11:02 02:22:11:02
804 UNKNOWN  V    D    062 05:11:01:11 05:11:11:11 02:22:11:02 02:22:21:02
* FROM CLIP NAME: 001
* TO CLIP NAME: 001
805 UNKNOWN  V    C        05:11:11:11 05:11:11:12 02:22:21:02 02:22:21:03
* FROM CLIP NAME: 001
806 UNKNOWN  V    C        05:11:11:12 05:11:22:02 02:22:21:03 02:22:31:18
* FROM CLIP NAME: 001
807 UNKNOWN  V    C        05:11:22:02 05:11:22:03 02:22:31:18 02:22:31:19
* FROM CLIP NAME: 001
808 UNKNOWN  V    C        05:11:22:03 05:11:36:06 02:22:31:19 02:22:45:22
* FROM CLIP NAME: 001
809 UNKNOWN  V    C        05:11:36:06 05:11:36:07 02:22:45:22 02:22:45:23
* FROM CLIP NAME: 001
810 UNKNOWN  V    C        05:11:36:07 05:11:53:07 02:22:45:23 02:23:02:23
* FROM CLIP NAME: 001
811 UNKNOWN  V    C        05:11:53:07 05:11:56:22 02:23:02:23 02:23:06:13
* FROM CLIP NAME: 001
812 UNKNOWN  V    C        05:11:56:22 05:12:07:14 02:23:06:13 02:23:17:05
* FROM CLIP NAME: 001
813 UNKNOWN  V    C        05:12:07:14 05:12:17:02 02:23:17:05 02:23:26:18
* FROM CLIP NAME: 001
814 UNKNOWN  V    C        05:12:17:02 05:12:19:19 02:23:26:18 02:23:29:10
* FROM CLIP NAME: 001
815 UNKNOWN  V    C        05:12:19:19 05:12:30:16 02:23:29:10 02:23:40:07
* FROM CLIP NAME: 001
816 UNKNOWN  V    C        05:12:30:16 05:12:30:17 02:23:40:07 02:23:40:08
* FROM CLIP NAME: 001
817 UNKNOWN  V    C        05:12:30:17 05:13:01:06 02:23:40:08 02:24:10:22
* FROM CLIP NAME: 001
818 UNKNOWN  V    C        05:13:01:06 05:13:01:07 02:24:10:22 02:24:10:23
* FROM CLIP NAME: 001
819 UNKNOWN  V    C        05:13:01:07 05:13:12:07 02:24:10:23 02:24:21:23
* FROM CLIP NAME: 001
820 UNKNOWN  V    C        05:13:12:07 05:13:26:07 02:24:21:23 02:24:35:23
* FROM CLIP NAME: 001
821 UNKNOWN  V    C        05:13:26:07 05:13:42:08 02:24:35:23 02:24:51:24
* FROM CLIP NAME: 001
822 UNKNOWN  V    C        05:13:42:08 05:13:45:08 02:24:51:24 02:24:54:24
* FROM CLIP NAME: 001
823 UNKNOWN  V    C        05:13:45:08 05:13:49:06 02:24:54:24 02:24:58:22
* FROM CLIP NAME: 001
824 UNKNOWN  V    C        05:13:49:06 05:13:54:22 02:24:58:22 02:25:04:13
* FROM CLIP NAME: 001
825 UNKNOWN  V    C        05:13:54:22 05:13:56:24 02:25:04:13 02:25:06:15
* FROM CLIP NAME: 001
826 UNKNOWN  V    C        05:13:56:24 05:13:59:10 02:25:06:15 02:25:09:01
* FROM CLIP NAME: 001
827 UNKNOWN  V    C        05:13:59:10 05:14:10:13 02:25:09:01 02:25:20:04
* FROM CLIP NAME: 001
828 UNKNOWN  V    C        05:14:10:13 05:14:22:03 02:25:20:04 02:25:31:19
* FROM CLIP NAME: 001
829 UNKNOWN  V    C        05:14:22:03 05:14:28:00 02:25:31:19 02:25:37:16
* FROM CLIP NAME: 001
830 UNKNOWN  V    C        05:14:28:00 05:14:33:15 02:25:37:16 02:25:43:06
* FROM CLIP NAME: 001
831 UNKNOWN  V    C        05:14:33:15 05:14:36:19 02:25:43:06 02:25:46:10
* FROM CLIP NAME: 001
832 UNKNOWN  V    C        05:14:36:19 05:14:40:24 02:25:46:10 02:25:50:15
* FROM CLIP NAME: 001
833 UNKNOWN  V    C        05:14:40:24 05:14:45:22 02:25:50:15 02:25:55:13
* FROM CLIP NAME: 001
834 UNKNOWN  V    C        05:14:45:22 05:14:50:24 02:25:55:13 02:26:00:15
* FROM CLIP NAME: 001
835 UNKNOWN  V    C        05:14:50:24 05:15:00:09 02:26:00:15 02:26:10:00
* FROM CLIP NAME: 001
836 UNKNOWN  V    C        05:15:00:09 05:15:10:01 02:26:10:00 02:26:19:17
* FROM CLIP NAME: 001
837 UNKNOWN  V    C        05:15:10:01 05:15:14:14 02:26:19:17 02:26:24:05
* FROM CLIP NAME: 001
838 UNKNOWN  V    C        05:15:14:14 05:15:14:15 02:26:24:05 02:26:24:06
* FROM CLIP NAME: 001
839 UNKNOWN  V    C        05:15:14:15 05:15:17:17 02:26:24:06 02:26:27:08
* FROM CLIP NAME: 001
840 UNKNOWN  V    C        05:15:17:17 05:15:17:18 02:26:27:08 02:26:27:09
* FROM CLIP NAME: 001
841 UNKNOWN  V    C        05:15:17:18 05:15:30:18 02:26:27:09 02:26:40:09
* FROM CLIP NAME: 001
842 UNKNOWN  V    C        05:15:30:18 05:15:30:19 02:26:40:09 02:26:40:10
* FROM CLIP NAME: 001
843 UNKNOWN  V    C        06:00:00:00 06:00:00:01 02:26:40:10 02:26:40:11
* FROM CLIP NAME: 001
844 UNKNOWN  V    C        06:00:00:01 06:00:00:01 02:26:40:11 02:26:40:11
844 UNKNOWN  V    D    025 06:00:00:01 06:00:14:20 02:26:40:11 02:26:55:05
* FROM CLIP NAME: 001
* TO CLIP NAME: 001
845 UNKNOWN  V    C        06:00:14:20 06:00:19:13 02:26:55:05 02:26:59:23
* FROM CLIP NAME: 001
846 UNKNOWN  V    C        06:00:19:13 06:00:19:14 02:26:59:23 02:26:59:24
* FROM CLIP NAME: 001
847 UNKNOWN  V    C        06:00:19:14 06:00:48:18 02:26:59:24 02:27:29:03
* FROM CLIP NAME: 001
848 UNKNOWN  V    C        06:00:48:18 06:00:48:18 02:27:29:03 02:27:29:03
848 UNKNOWN  V    D    018 06:00:48:18 06:00:49:11 02:27:29:03 02:27:29:21
* FROM CLIP NAME: 001
* TO CLIP NAME: 001
849 UNKNOWN  V    C        06:00:49:11 06:00:49:12 02:27:29:21 02:27:29:22
* FROM CLIP NAME: 001
850 UNKNOWN  V    C        06:00:49:12 06:00:52:19 02:27:29:22 02:27:33:04
* FROM CLIP NAME: 001
851 UNKNOWN  V    C        06:00:52:19 06:00:52:20 02:27:33:04 02:27:33:05
* FROM CLIP NAME: 001
852 UNKNOWN  V    C        06:00:52:20 06:00:57:05 02:27:33:05 02:27:37:15
* FROM CLIP NAME: 001
853 UNKNOWN  V    C        06:00:57:05 06:00:57:06 02:27:37:15 02:27:37:16
* FROM CLIP NAME: 001
854 UNKNOWN  V    C        06:00:57:06 06:01:18:06 02:27:37:16 02:27:58:16
* FROM CLIP NAME: 001
855 UNKNOWN  V    C        06:01:18:06 06:01:23:19 02:27:58:16 02:28:04:04
* FROM CLIP NAME: 001
856 UNKNOWN  V    C        06:01:23:19 06:01:34:08 02:28:04:04 02:28:14:18
* FROM CLIP NAME: 001
857 UNKNOWN  V    C        06:01:34:08 06:01:34:08 02:28:14:18 02:28:14:18
857 UNKNOWN  V    D    040 06:01:34:08 06:01:36:09 02:28:14:18 02:28:16:19
* FROM CLIP NAME: 001
* TO CLIP NAME: 001
858 UNKNOWN  V    C        06:01:36:05 06:01:36:06 02:28:16:19 02:28:16:20
* FROM CLIP NAME: 001
859 UNKNOWN  V    C        06:01:36:10 06:01:36:11 02:28:16:20 02:28:16:21
* FROM CLIP NAME: 001
860 UNKNOWN  V    C        06:01:36:11 06:01:36:11 02:28:16:21 02:28:16:21
860 UNKNOWN  V    D    020 06:01:36:11 06:01:53:14 02:28:16:21 02:28:33:24
* FROM CLIP NAME: 001
* TO CLIP NAME: 001
861 UNKNOWN  V    C        06:01:53:14 06:01:53:15 02:28:33:24 02:28:34:00
* FROM CLIP NAME: 001
862 UNKNOWN  V    C        06:01:53:15 06:01:58:01 02:28:34:00 02:28:38:11
* FROM CLIP NAME: 001
863 UNKNOWN  V    C        06:01:58:01 06:01:58:02 02:28:38:11 02:28:38:12
* FROM CLIP NAME: 001
864 UNKNOWN  V    C        06:01:58:02 06:02:01:13 02:28:38:12 02:28:41:23
* FROM CLIP NAME: 001
865 UNKNOWN  V    C        06:02:01:13 06:02:01:14 02:28:41:23 02:28:41:24
* FROM CLIP NAME: 001
866 UNKNOWN  V    C        06:02:01:14 06:02:22:10 02:28:41:24 02:29:02:20
* FROM CLIP NAME: 001
867 UNKNOWN  V    C        06:02:22:10 06:02:50:21 02:29:02:20 02:29:31:06
* FROM CLIP NAME: 001
868 UNKNOWN  V    C        06:02:50:21 06:02:50:22 02:29:31:06 02:29:31:07
* FROM CLIP NAME: 001
869 UNKNOWN  V    C        06:02:50:22 06:02:55:14 02:29:31:07 02:29:35:24
* FROM CLIP NAME: 001
870 UNKNOWN  V    C        06:02:55:14 06:03:09:01 02:29:35:24 02:29:49:11
* FROM CLIP NAME: 001
871 UNKNOWN  V    C        06:03:09:01 06:03:09:02 02:29:49:11 02:29:49:12
* FROM CLIP NAME: 001
872 UNKNOWN  V    C        06:03:09:02 06:03:13:21 02:29:49:12 02:29:54:06
* FROM CLIP NAME: 001
873 UNKNOWN  V    C        06:03:13:21 06:03:13:22 02:29:54:06 02:29:54:07
* FROM CLIP NAME: 001
874 UNKNOWN  V    C        06:03:13:22 06:03:39:10 02:29:54:07 02:30:19:20
* FROM CLIP NAME: 001
875 UNKNOWN  V    C        06:03:39:10 06:03:39:10 02:30:19:20 02:30:19:20
875 UNKNOWN  V    D    017 06:03:39:10 06:03:40:03 02:30:19:20 02:30:20:13
* FROM CLIP NAME: 001
* TO CLIP NAME: 001
876 UNKNOWN  V    C        06:03:40:03 06:03:40:04 02:30:20:13 02:30:20:14
* FROM CLIP NAME: 001
877 UNKNOWN  V    C        06:03:40:04 06:03:40:04 02:30:20:14 02:30:20:14
877 UNKNOWN  V    D    018 06:03:40:04 06:03:49:17 02:30:20:14 02:30:30:02
* FROM CLIP NAME: 001
* TO CLIP NAME: 001
878 UNKNOWN  V    C        06:03:49:17 06:03:58:09 02:30:30:02 02:30:38:19
* FROM CLIP NAME: 001
879 UNKNOWN  V    C        06:03:58:09 06:04:13:03 02:30:38:19 02:30:53:13
* FROM CLIP NAME: 001
880 UNKNOWN  V    C        06:04:13:03 06:04:16:18 02:30:53:13 02:30:57:03
* FROM CLIP NAME: 001
881 UNKNOWN  V    C        06:04:16:18 06:04:16:19 02:30:57:03 02:30:57:04
* FROM CLIP NAME: 001
882 UNKNOWN  V    C        06:04:16:19 06:04:23:15 02:30:57:04 02:31:04:00
* FROM CLIP NAME: 001
883 UNKNOWN  V    C        06:04:23:15 06:04:23:16 02:31:04:00 02:31:04:01
* FROM CLIP NAME: 001
884 UNKNOWN  V    C        06:04:23:16 06:04:27:04 02:31:04:01 02:31:07:14
* FROM CLIP NAME: 001
885 UNKNOWN  V    C        06:04:27:04 06:04:27:05 02:31:07:14 02:31:07:15
* FROM CLIP NAME: 001
886 UNKNOWN  V    C        06:04:27:05 06:04:35:12 02:31:07:15 02:31:15:22
* FROM CLIP NAME: 001
887 UNKNOWN  V    C        06:04:35:12 06:04:38:09 02:31:15:22 02:31:18:19
* FROM CLIP NAME: 001
888 UNKNOWN  V    C        06:04:38:09 06:04:38:10 02:31:18:19 02:31:18:20
* FROM CLIP NAME: 001
889 UNKNOWN  V    C        06:04:38:10 06:04:58:12 02:31:18:20 02:31:38:22
* FROM CLIP NAME: 001
890 UNKNOWN  V    C        06:04:58:12 06:05:06:14 02:31:38:22 02:31:46:24
* FROM CLIP NAME: 001
891 UNKNOWN  V    C        06:05:06:14 06:05:06:15 02:31:46:24 02:31:47:00
* FROM CLIP NAME: 001
892 UNKNOWN  V    C        06:05:06:15 06:05:10:19 02:31:47:00 02:31:51:04
* FROM CLIP NAME: 001
893 UNKNOWN  V    C        06:05:10:19 06:05:14:17 02:31:51:04 02:31:55:02
* FROM CLIP NAME: 001
894 UNKNOWN  V    C        06:05:14:17 06:05:14:18 02:31:55:02 02:31:55:03
* FROM CLIP NAME: 001
895 UNKNOWN  V    C        06:05:14:18 06:05:46:19 02:31:55:03 02:32:27:04
* FROM CLIP NAME: 001
896 UNKNOWN  V    C        06:05:46:19 06:05:46:20 02:32:27:04 02:32:27:05
* FROM CLIP NAME: 001
897 UNKNOWN  V    C        06:05:46:20 06:05:50:12 02:32:27:05 02:32:30:22
* FROM CLIP NAME: 001
898 UNKNOWN  V    C        06:05:50:12 06:05:58:23 02:32:30:22 02:32:39:08
* FROM CLIP NAME: 001
899 UNKNOWN  V    C        06:05:58:23 06:06:00:04 02:32:39:08 02:32:40:14
* FROM CLIP NAME: 001
900 UNKNOWN  V    C        06:06:00:04 06:06:13:00 02:32:40:14 02:32:53:10
* FROM CLIP NAME: 001
901 UNKNOWN  V    C        06:06:13:00 06:06:13:00 02:32:53:10 02:32:53:10
901 UNKNOWN  V    D    050 06:06:13:00 06:06:15:01 02:32:53:10 02:32:55:11
* FROM CLIP NAME: 001
* TO CLIP NAME: 001
902 UNKNOWN  V    C        06:06:15:01 06:06:15:02 02:32:55:11 02:32:55:12
* FROM CLIP NAME: 001
903 UNKNOWN  V    C        06:06:15:02 06:06:15:02 02:32:55:12 02:32:55:12
903 UNKNOWN  V    D    026 06:06:15:02 06:06:19:10 02:32:55:12 02:32:59:20
* FROM CLIP NAME: 001
* TO CLIP NAME: 001
904 UNKNOWN  V    C        06:06:19:10 06:06:24:03 02:32:59:20 02:33:04:13
* FROM CLIP NAME: 001
905 UNKNOWN  V    C        06:06:24:03 06:06:24:04 02:33:04:13 02:33:04:14
* FROM CLIP NAME: 001
906 UNKNOWN  V    C        06:06:24:04 06:06:24:05 02:33:04:14 02:33:04:15
* FROM CLIP NAME: 001
907 UNKNOWN  V    C        06:06:24:05 06:06:27:12 02:33:04:15 02:33:07:22
* FROM CLIP NAME: 001
908 UNKNOWN  V    C        06:06:27:12 06:06:32:10 02:33:07:22 02:33:12:20
* FROM CLIP NAME: 001
909 UNKNOWN  V    C        06:06:32:10 06:06:32:10 02:33:12:20 02:33:12:20
909 UNKNOWN  V    D    020 06:06:32:10 06:06:36:22 02:33:12:20 02:33:17:07
* FROM CLIP NAME: 001
* TO CLIP NAME: 001
910 UNKNOWN  V    C        06:06:36:22 06:06:36:22 02:33:17:07 02:33:17:07
910 UNKNOWN  V    D    024 06:06:36:22 06:06:41:16 02:33:17:07 02:33:22:01
* FROM CLIP NAME: 001
* TO CLIP NAME: 001
911 UNKNOWN  V    C        06:06:41:16 06:06:41:16 02:33:22:01 02:33:22:01
911 UNKNOWN  V    D    013 06:06:41:16 06:06:50:12 02:33:22:01 02:33:30:22
* FROM CLIP NAME: 001
* TO CLIP NAME: 001
912 UNKNOWN  V    C        06:06:50:12 06:06:56:24 02:33:30:22 02:33:37:09
* FROM CLIP NAME: 001
913 UNKNOWN  V    C        06:06:56:24 06:07:01:04 02:33:37:09 02:33:41:14
* FROM CLIP NAME: 001
914 UNKNOWN  V    C        06:07:01:04 06:07:01:05 02:33:41:14 02:33:41:15
* FROM CLIP NAME: 001
915 UNKNOWN  V    C        06:07:01:05 06:07:05:01 02:33:41:15 02:33:45:11
* FROM CLIP NAME: 001
916 UNKNOWN  V    C        06:07:05:01 06:07:05:02 02:33:45:11 02:33:45:12
* FROM CLIP NAME: 001
917 UNKNOWN  V    C        06:07:05:02 06:07:09:24 02:33:45:12 02:33:50:09
* FROM CLIP NAME: 001
918 UNKNOWN  V    C        06:07:09:24 06:07:13:03 02:33:50:09 02:33:53:13
* FROM CLIP NAME: 001
919 UNKNOWN  V    C        06:07:13:03 06:07:21:11 02:33:53:13 02:34:01:21
* FROM CLIP NAME: 001
920 UNKNOWN  V    C        06:07:21:11 06:07:21:12 02:34:01:21 02:34:01:22
* FROM CLIP NAME: 001
921 UNKNOWN  V    C        06:07:21:12 06:07:24:16 02:34:01:22 02:34:05:01
* FROM CLIP NAME: 001
922 UNKNOWN  V    C        06:07:24:16 06:07:26:17 02:34:05:01 02:34:07:02
* FROM CLIP NAME: 001
923 UNKNOWN  V    C        06:07:26:17 06:07:26:18 02:34:07:02 02:34:07:03
* FROM CLIP NAME: 001
924 UNKNOWN  V    C        06:07:26:18 06:07:44:17 02:34:07:03 02:34:25:02
* FROM CLIP NAME: 001
925 UNKNOWN  V    C        06:07:44:17 06:07:44:18 02:34:25:02 02:34:25:03
* FROM CLIP NAME: 001
926 UNKNOWN  V    C        06:07:44:18 06:07:53:07 02:34:25:03 02:34:33:17
* FROM CLIP NAME: 001
927 UNKNOWN  V    C        06:07:53:07 06:08:07:03 02:34:33:17 02:34:47:13
* FROM CLIP NAME: 001
928 UNKNOWN  V    C        06:08:07:03 06:08:07:03 02:34:47:13 02:34:47:13
928 UNKNOWN  V    D    011 06:08:07:03 06:08:07:15 02:34:47:13 02:34:48:00
* FROM CLIP NAME: 001
* TO CLIP NAME: 001
929 UNKNOWN  V    C        06:08:07:15 06:08:07:16 02:34:48:00 02:34:48:01
* FROM CLIP NAME: 001
930 UNKNOWN  V    C        06:08:07:16 06:08:07:16 02:34:48:01 02:34:48:01
930 UNKNOWN  V    D    014 06:08:07:16 06:08:16:24 02:34:48:01 02:34:57:09
* FROM CLIP NAME: 001
* TO CLIP NAME: 001
931 UNKNOWN  V    C        06:08:16:24 06:08:17:00 02:34:57:09 02:34:57:10
* FROM CLIP NAME: 001
932 UNKNOWN  V    C        06:08:17:00 06:08:19:18 02:34:57:10 02:35:00:03
* FROM CLIP NAME: 001
933 UNKNOWN  V    C        06:08:19:18 06:08:23:08 02:35:00:03 02:35:03:18
* FROM CLIP NAME: 001
934 UNKNOWN  V    C        06:08:23:08 06:08:25:24 02:35:03:18 02:35:06:09
* FROM CLIP NAME: 001
935 UNKNOWN  V    C        06:08:25:24 06:08:31:17 02:35:06:09 02:35:12:02
* FROM CLIP NAME: 001
936 UNKNOWN  V    C        06:08:31:17 06:08:31:18 02:35:12:02 02:35:12:03
* FROM CLIP NAME: 001
937 UNKNOWN  V    C        06:08:31:18 06:08:35:11 02:35:12:03 02:35:15:21
* FROM CLIP NAME: 001
938 UNKNOWN  V    C        06:08:35:11 06:08:37:21 02:35:15:21 02:35:18:06
* FROM CLIP NAME: 001
939 UNKNOWN  V    C        06:08:37:21 06:08:42:06 02:35:18:06 02:35:22:16
* FROM CLIP NAME: 001
940 UNKNOWN  V    C        06:08:42:06 06:08:42:07 02:35:22:16 02:35:22:17
* FROM CLIP NAME: 001
941 UNKNOWN  V    C        06:08:42:07 06:09:00:23 02:35:22:17 02:35:41:08
* FROM CLIP NAME: 001
942 UNKNOWN  V    C        06:09:00:23 06:09:03:24 02:35:41:08 02:35:44:09
* FROM CLIP NAME: 001
943 UNKNOWN  V    C        06:09:03:24 06:09:06:20 02:35:44:09 02:35:47:05
* FROM CLIP NAME: 001
944 UNKNOWN  V    C        06:09:06:20 06:09:06:21 02:35:47:05 02:35:47:06
* FROM CLIP NAME: 001
945 UNKNOWN  V    C        06:09:06:21 06:09:09:09 02:35:47:06 02:35:49:19
* FROM CLIP NAME: 001
946 UNKNOWN  V    C        06:09:09:09 06:09:10:04 02:35:49:19 02:35:50:14
* FROM CLIP NAME: 001
947 UNKNOWN  V    C        06:09:10:04 06:09:11:11 02:35:50:14 02:35:51:21
* FROM CLIP NAME: 001
948 UNKNOWN  V    C        06:09:11:11 06:09:14:08 02:35:51:21 02:35:54:18
* FROM CLIP NAME: 001
949 UNKNOWN  V    C        06:09:14:08 06:09:29:06 02:35:54:18 02:36:09:16
* FROM CLIP NAME: 001
950 UNKNOWN  V    C        06:09:29:06 06:09:29:07 02:36:09:16 02:36:09:17
* FROM CLIP NAME: 001
951 UNKNOWN  V    C        06:09:29:07 06:09:37:20 02:36:09:17 02:36:18:05
* FROM CLIP NAME: 001
952 UNKNOWN  V    C        06:09:37:20 06:09:37:21 02:36:18:05 02:36:18:06
* FROM CLIP NAME: 001
953 UNKNOWN  V    C        06:09:37:21 06:09:38:19 02:36:18:06 02:36:19:04
* FROM CLIP NAME: 001
954 UNKNOWN  V    C        06:09:38:19 06:09:39:09 02:36:19:04 02:36:19:19
* FROM CLIP NAME: 001
955 UNKNOWN  V    C        06:09:39:09 06:09:40:24 02:36:19:19 02:36:21:09
* FROM CLIP NAME: 001
956 UNKNOWN  V    C        06:09:40:24 06:09:43:24 02:36:21:09 02:36:24:09
* FROM CLIP NAME: 001
957 UNKNOWN  V    C        06:09:43:24 06:09:45:22 02:36:24:09 02:36:26:07
* FROM CLIP NAME: 001
958 UNKNOWN  V    C        06:09:45:22 06:09:46:15 02:36:26:07 02:36:27:00
* FROM CLIP NAME: 001
959 UNKNOWN  V    C        06:09:46:15 06:09:47:15 02:36:27:00 02:36:28:00
* FROM CLIP NAME: 001
960 UNKNOWN  V    C        06:09:47:15 06:09:49:01 02:36:28:00 02:36:29:11
* FROM CLIP NAME: 001
961 UNKNOWN  V    C        06:09:49:01 06:09:50:23 02:36:29:11 02:36:31:08
* FROM CLIP NAME: 001
962 UNKNOWN  V    C        06:09:50:23 06:09:51:15 02:36:31:08 02:36:32:00
* FROM CLIP NAME: 001
963 UNKNOWN  V    C        06:09:51:15 06:09:52:12 02:36:32:00 02:36:32:22
* FROM CLIP NAME: 001
964 UNKNOWN  V    C        06:09:52:12 06:09:53:11 02:36:32:22 02:36:33:21
* FROM CLIP NAME: 001
965 UNKNOWN  V    C        06:09:53:11 06:09:59:24 02:36:33:21 02:36:40:09
* FROM CLIP NAME: 001
966 UNKNOWN  V    C        06:09:59:24 06:10:05:15 02:36:40:09 02:36:46:00
* FROM CLIP NAME: 001
967 UNKNOWN  V    C        06:10:05:15 06:10:07:02 02:36:46:00 02:36:47:12
* FROM CLIP NAME: 001
968 UNKNOWN  V    C        06:10:07:02 06:10:09:18 02:36:47:12 02:36:50:03
* FROM CLIP NAME: 001
969 UNKNOWN  V    C        06:10:09:18 06:10:14:17 02:36:50:03 02:36:55:02
* FROM CLIP NAME: 001
970 UNKNOWN  V    C        06:10:14:17 06:10:14:17 02:36:55:02 02:36:55:02
970 UNKNOWN  V    D    037 06:10:14:17 06:10:16:11 02:36:55:02 02:36:56:21
* FROM CLIP NAME: 001
* TO CLIP NAME: 001
971 UNKNOWN  V    C        06:10:16:11 06:10:16:12 02:36:56:21 02:36:56:22
* FROM CLIP NAME: 001
972 UNKNOWN  V    C        06:10:16:12 06:10:23:08 02:36:56:22 02:37:03:18
* FROM CLIP NAME: 001
973 UNKNOWN  V    C        06:10:23:08 06:10:23:08 02:37:03:18 02:37:03:18
973 UNKNOWN  V    D    023 06:10:23:08 06:10:24:06 02:37:03:18 02:37:04:16
* FROM CLIP NAME: 001
* TO CLIP NAME: 001
974 UNKNOWN  V    C        06:10:24:06 06:10:24:07 02:37:04:16 02:37:04:17
* FROM CLIP NAME: 001
975 UNKNOWN  V    C        06:10:24:07 06:10:29:07 02:37:04:17 02:37:09:17
* FROM CLIP NAME: 001
976 UNKNOWN  V    C        06:10:29:07 06:10:29:08 02:37:09:17 02:37:09:18
* FROM CLIP NAME: 001
977 UNKNOWN  V    C        06:10:29:08 06:10:44:06 02:37:09:18 02:37:24:16
* FROM CLIP NAME: 001
978 UNKNOWN  V    C        06:10:44:06 06:10:59:09 02:37:24:16 02:37:39:19
* FROM CLIP NAME: 001
979 UNKNOWN  V    C        06:10:59:09 06:11:02:23 02:37:39:19 02:37:43:08
* FROM CLIP NAME: 001
980 UNKNOWN  V    C        06:11:02:23 06:11:08:03 02:37:43:08 02:37:48:13
* FROM CLIP NAME: 001
981 UNKNOWN  V    C        06:11:08:03 06:11:13:04 02:37:48:13 02:37:53:14
* FROM CLIP NAME: 001
982 UNKNOWN  V    C        06:11:13:04 06:11:13:05 02:37:53:14 02:37:53:15
* FROM CLIP NAME: 001
983 UNKNOWN  V    C        06:11:13:05 06:11:25:24 02:37:53:15 02:38:06:09
* FROM CLIP NAME: 001
984 UNKNOWN  V    C        06:11:25:24 06:11:29:07 02:38:06:09 02:38:09:17
* FROM CLIP NAME: 001
985 UNKNOWN  V    C        06:11:29:07 06:11:29:08 02:38:09:17 02:38:09:18
* FROM CLIP NAME: 001
986 UNKNOWN  V    C        06:11:29:08 06:11:33:00 02:38:09:18 02:38:13:10
* FROM CLIP NAME: 001
987 UNKNOWN  V    C        06:11:33:00 06:11:33:01 02:38:13:10 02:38:13:11
* FROM CLIP NAME: 001
988 UNKNOWN  V    C        06:11:33:01 06:11:38:04 02:38:13:11 02:38:18:14
* FROM CLIP NAME: 001
989 UNKNOWN  V    C        06:11:38:04 06:11:44:15 02:38:18:14 02:38:25:00
* FROM CLIP NAME: 001
990 UNKNOWN  V    C        06:11:44:15 06:11:44:16 02:38:25:00 02:38:25:01
* FROM CLIP NAME: 001
991 UNKNOWN  V    C        06:11:44:16 06:11:49:15 02:38:25:01 02:38:30:00
* FROM CLIP NAME: 001
992 UNKNOWN  V    C        06:11:49:15 06:11:49:16 02:38:30:00 02:38:30:01
* FROM CLIP NAME: 001
993 UNKNOWN  V    C        06:11:49:16 06:11:51:13 02:38:30:01 02:38:31:23
* FROM CLIP NAME: 001
994 UNKNOWN  V    C        06:11:51:13 06:11:52:16 02:38:31:23 02:38:33:01
* FROM CLIP NAME: 001
995 UNKNOWN  V    C        06:11:52:16 06:11:54:23 02:38:33:01 02:38:35:08
* FROM CLIP NAME: 001
996 UNKNOWN  V    C        06:11:54:23 06:12:03:02 02:38:35:08 02:38:43:12
* FROM CLIP NAME: 001
997 UNKNOWN  V    C        06:12:03:02 06:12:04:12 02:38:43:12 02:38:44:22
* FROM CLIP NAME: 001
998 UNKNOWN  V    C        06:12:04:12 06:12:10:05 02:38:44:22 02:38:50:15
* FROM CLIP NAME: 001
999 UNKNOWN  V    C        06:12:10:05 06:12:10:05 02:38:50:15 02:38:50:15
999 UNKNOWN  V    D    048 06:12:10:05 06:12:13:03 02:38:50:15 02:38:53:13
* FROM CLIP NAME: 001
* TO CLIP NAME: 001
1000 UNKNOWN  V    C        06:12:13:03 06:12:13:04 02:38:53:13 02:38:53:14
* FROM CLIP NAME: 001
1001 UNKNOWN  V    C        06:12:13:04 06:12:13:04 02:38:53:14 02:38:53:14
1001 UNKNOWN  V    D    019 06:12:13:04 06:12:28:12 02:38:53:14 02:39:08:22
* FROM CLIP NAME: 001
* TO CLIP NAME: 001
1002 UNKNOWN  V    C        06:12:28:12 06:12:28:12 02:39:08:22 02:39:08:22
1002 UNKNOWN  V    D    007 06:12:28:12 06:12:36:11 02:39:08:22 02:39:16:21
* FROM CLIP NAME: 001
* TO CLIP NAME: 001
1003 UNKNOWN  V    C        06:12:36:11 06:12:36:11 02:39:16:21 02:39:16:21
1003 UNKNOWN  V    D    020 06:12:36:11 06:12:40:23 02:39:16:21 02:39:21:08
* FROM CLIP NAME: 001
* TO CLIP NAME: 001
1004 UNKNOWN  V    C        06:12:40:23 06:12:42:22 02:39:21:08 02:39:23:07
* FROM CLIP NAME: 001
